<?xml version="1.0" standalone="no"?> 
<!DOCTYPE svg PUBLIC "-//W3C//DTD SVG 1.1//EN" "http://www.w3.org/Graphics/SVG/1.1/DTD/svg11.dtd" >
<svg xmlns="http://www.w3.org/2000/svg">
<defs>
  <font id="nfte-icons" horiz-adv-x="37">
    <font-face font-family="nfte-icons"
      units-per-em="1001" ascent="1001"
      descent="0" />
    <missing-glyph horiz-adv-x="0" />
    <glyph glyph-name="arrow-down"
      unicode="&#xE001;"
      horiz-adv-x="1001" d=" M291.9583333333334 583.9166666666666L500.5 375.375L709.0416666666667 583.9166666666666z" />
    <glyph glyph-name="arrow-up"
      unicode="&#xE002;"
      horiz-adv-x="1001" d=" M291.9583333333334 417.0833333333333L500.5 625.625L709.0416666666667 417.0833333333333z" />
    <glyph glyph-name="arrow_back_black"
      unicode="&#xE003;"
      horiz-adv-x="1001" d=" M834.1666666666667 542.2083333333333H326.57625L559.7258333333334 775.3579166666666L500.5 834.1666666666666L166.8333333333334 500.5L500.5 166.8333333333333L559.30875 225.6420833333333L326.57625 458.7916666666666H834.1666666666667V542.2083333333333z" />
    <glyph glyph-name="arrow_forward_black"
      unicode="&#xE004;"
      horiz-adv-x="1001" d=" M500.5 834.1666666666666L441.6912500000001 775.3579166666666L674.4237500000002 542.2083333333333H166.8333333333334V458.7916666666666H674.4237500000002L441.6912500000001 225.6420833333333L500.5 166.8333333333333L834.1666666666667 500.5z" />
    <glyph glyph-name="back"
      unicode="&#xE005;"
      horiz-adv-x="1001" d=" M834.1666666666667 542.2083333333333H326.57625L559.7258333333334 775.3579166666666L500.5 834.1666666666666L166.8333333333334 500.5L500.5 166.8333333333333L559.30875 225.6420833333333L326.57625 458.7916666666666H834.1666666666667V542.2083333333333z" />
    <glyph glyph-name="back_2px"
      unicode="&#xE006;"
      horiz-adv-x="1001" d=" M834.1666666666667 542.2083333333333L262.7625 542.2083333333333L475.475 754.9208333333333L417.0833333333334 813.3125L162.6625 558.8916666666667L104.2708333333333 500.5L162.6625 442.1083333333333L417.0833333333334 187.6875L475.475 246.0791666666666L262.7625 458.7916666666666L834.1666666666667 458.7916666666666z" />
    <glyph glyph-name="bullet_point_filled"
      unicode="&#xE007;"
      horiz-adv-x="1001" d=" M500.5 917.5833333333334C270.2700000000001 917.5833333333334 83.4166666666667 730.73 83.4166666666667 500.5S270.2700000000001 83.4166666666666 500.5 83.4166666666666S917.5833333333334 270.27 917.5833333333334 500.5S730.73 917.5833333333334 500.5 917.5833333333334z" />
    <glyph glyph-name="caption-on"
      unicode="&#xE008;"
      horiz-adv-x="1001" d=" M0 1001H1001V0H0V1001z M208.5416666666667 834.1666666666666C162.6625 834.1666666666666 125.125 796.6291666666666 125.125 750.75C125.125 750.75 125.125 750.75 125.125 750.75V250.25C125.125 204.3708333333333 162.6625 166.8333333333333 208.5416666666667 166.8333333333333C208.5416666666667 166.8333333333333 208.5416666666667 166.8333333333333 208.5416666666667 166.8333333333333H792.4583333333334C838.3375000000001 166.8333333333333 875.875 204.3708333333333 875.875 250.25C875.875 250.25 875.875 250.25 875.875 250.25V750.75C875.875 796.6291666666666 838.3375000000001 834.1666666666666 792.4583333333334 834.1666666666666C792.4583333333334 834.1666666666666 792.4583333333334 834.1666666666666 792.4583333333334 834.1666666666666H208.5416666666667zM396.2291666666667 542.2083333333333V563.0625H312.8125V437.9375H396.2291666666667V458.7916666666666H458.7916666666667V417.0833333333333C458.7916666666667 404.5708333333334 454.6208333333334 396.2291666666667 446.2791666666667 387.8875000000001C437.9375 379.5458333333333 429.5958333333334 375.375 417.0833333333334 375.375H291.9583333333334C271.1041666666667 375.375 250.25 396.2291666666667 250.25 417.0833333333333V583.9166666666666C250.25 604.7708333333333 271.1041666666667 625.625 291.9583333333334 625.625H417.0833333333334C429.5958333333334 625.625 437.9375 621.4541666666667 446.2791666666667 613.1125C454.6208333333334 604.7708333333333 458.7916666666667 596.4291666666667 458.7916666666667 583.9166666666666V542.2083333333333L396.2291666666667 542.2083333333333L396.2291666666667 542.2083333333333zM688.1875 542.2083333333333V563.0625H604.7708333333334V437.9375H688.1875V458.7916666666666H750.75V417.0833333333333C750.75 396.2291666666667 729.8958333333334 375.375 709.0416666666667 375.375H583.9166666666667C571.4041666666667 375.375 563.0625 379.5458333333333 554.7208333333334 387.8875000000001C546.3791666666667 396.2291666666667 542.2083333333334 404.5708333333334 542.2083333333334 417.0833333333333V583.9166666666666C542.2083333333334 596.4291666666667 546.3791666666667 604.7708333333333 554.7208333333334 613.1125C563.0625 621.4541666666667 571.4041666666667 625.625 583.9166666666667 625.625H709.0416666666667C729.8958333333334 625.625 750.75 604.7708333333333 750.75 583.9166666666666V542.2083333333333L688.1875 542.2083333333333L688.1875 542.2083333333333z M834.1666666666667 0H166.8333333333334C145.9791666666667 0 125.125 16.6833333333332 125.125 41.7083333333333V41.7083333333333C125.125 62.5625 141.8083333333333 83.4166666666666 166.8333333333334 83.4166666666666H834.1666666666667C855.0208333333334 83.4166666666666 875.875 66.7333333333334 875.875 41.7083333333333V41.7083333333333C875.875 16.6833333333332 859.1916666666667 0 834.1666666666667 0z" />
    <glyph glyph-name="check-cross"
      unicode="&#xE009;"
      horiz-adv-x="1001" d=" M83.4166666666667 508.8416666666666C83.4166666666667 279.4458333333332 271.1041666666667 91.7583333333332 500.5 91.7583333333332S917.5833333333334 279.4458333333332 917.5833333333334 508.8416666666666S729.8958333333334 925.925 500.5 925.925C387.8875000000001 925.925 283.6166666666667 884.2166666666666 204.3708333333334 804.9708333333333C125.125 725.725 83.4166666666667 621.4541666666667 83.4166666666667 508.8416666666666zM650.65 300.3L500.5 450.45L350.35 300.3L291.9583333333334 358.6916666666666L442.1083333333334 508.8416666666666L291.9583333333334 658.9916666666667L350.35 717.3833333333334L500.5 567.2333333333333L650.65 717.3833333333334L709.0416666666667 658.9916666666667L558.8916666666668 508.8416666666667L709.0416666666667 358.6916666666667L650.65 300.3z" />
    <glyph glyph-name="check"
      unicode="&#xE00A;"
      horiz-adv-x="1001" d=" M500.5 917.5833333333334C271.1041666666667 917.5833333333334 83.4166666666667 729.8958333333333 83.4166666666667 500.5S271.1041666666667 83.4166666666666 500.5 83.4166666666666S917.5833333333334 271.1041666666667 917.5833333333334 500.5S729.8958333333334 917.5833333333334 500.5 917.5833333333334zM417.0833333333334 291.9583333333333L208.5416666666667 500.5L266.9333333333334 558.8916666666667L417.0833333333334 408.7416666666667L734.0666666666667 725.725L792.4583333333334 667.3333333333333L417.0833333333334 291.9583333333333z" />
    <glyph glyph-name="check_box_normal"
      unicode="&#xE00B;"
      horiz-adv-x="1001" d=" M875.875 875.875V125.125H125.125V875.875H875.875M917.5833333333334 917.5833333333334H83.4166666666667V83.4166666666666H917.5833333333334V917.5833333333334L917.5833333333334 917.5833333333334z" />
    <glyph glyph-name="check_box_selected"
      unicode="&#xE00C;"
      horiz-adv-x="1001" d=" M83.4166666666667 917.5833333333334V83.4166666666666H917.5833333333334V917.5833333333334H83.4166666666667zM354.5208333333334 246.0791666666666L208.5416666666667 392.0583333333333L233.5666666666667 417.0833333333333L354.5208333333334 296.1291666666667L767.4333333333333 709.0416666666666L792.4583333333334 684.0166666666667L354.5208333333334 246.0791666666666z" />
    <glyph glyph-name="chevron_down"
      unicode="&#xE00D;"
      horiz-adv-x="1001" d=" M691.9412500000001 642.7254166666667L500.5 451.70125L309.0587500000001 642.7254166666667L250.25 583.9166666666666L500.5 333.6666666666667L750.75 583.9166666666666z" />
    <glyph glyph-name="chevron_left"
      unicode="&#xE00E;"
      horiz-adv-x="1001" d=" M642.7254166666667 691.94125L583.9166666666667 750.75L333.6666666666667 500.5L583.9166666666667 250.25L642.7254166666667 309.0587499999999L451.70125 500.5z" />
    <glyph glyph-name="chevron_right"
      unicode="&#xE00F;"
      horiz-adv-x="1001" d=" M417.0833333333334 750.75L358.6916666666667 692.3583333333333L550.55 500.5L358.6916666666667 308.6416666666666L417.0833333333334 250.25L667.3333333333334 500.5L417.0833333333334 750.75z" />
    <glyph glyph-name="chevron_up"
      unicode="&#xE010;"
      horiz-adv-x="1001" d=" M500.5 667.3333333333333L250.25 417.0833333333333L309.0587500000001 358.2745833333334L500.5 549.2987499999999L691.9412500000001 358.2745833333334L750.75 417.0833333333333z" />
    <glyph glyph-name="clear-pathways"
      unicode="&#xE011;"
      horiz-adv-x="1001" d=" M500.5 834.1666666666666V959.2916666666666L333.6666666666667 792.4583333333333L500.5 625.625V750.75C638.5545833333334 750.75 750.75 638.5545833333333 750.75 500.5C750.75 458.3745833333334 740.3229166666667 418.3345833333333 721.5541666666668 383.7166666666666L782.4483333333335 322.8224999999999C814.9808333333333 374.12375 834.1666666666667 435.0179166666667 834.1666666666667 500.5C834.1666666666667 684.8508333333333 684.8508333333334 834.1666666666666 500.5 834.1666666666666zM500.5 250.25C362.4454166666667 250.25 250.25 362.4454166666666 250.25 500.5C250.25 542.6254166666666 260.6770833333334 582.6654166666667 279.4458333333334 617.2833333333333L218.5516666666667 678.1775C186.0191666666667 626.87625 166.8333333333334 565.9820833333333 166.8333333333334 500.5C166.8333333333334 316.1491666666666 316.1491666666667 166.8333333333333 500.5 166.8333333333333V41.7083333333333L667.3333333333334 208.5416666666666L500.5 375.375V250.25z" />
    <glyph glyph-name="clear"
      unicode="&#xE012;"
      horiz-adv-x="1001" d=" M792.4583333333334 733.6495833333333L733.6495833333333 792.4583333333333L500.5 559.3087499999999L267.3504166666667 792.4583333333333L208.5416666666667 733.6495833333333L441.6912500000001 500.5L208.5416666666667 267.3504166666667L267.3504166666667 208.5416666666666L500.5 441.69125L733.6495833333333 208.5416666666666L792.4583333333334 267.3504166666667L559.30875 500.5z" />
    <glyph glyph-name="closed-caption"
      unicode="&#xE013;"
      horiz-adv-x="1001" d=" M792.4583333333334 834.1666666666666H208.5416666666667C162.6625 834.1666666666666 125.125 796.6291666666666 125.125 750.75V250.25C125.125 204.3708333333333 162.6625 166.8333333333333 208.5416666666667 166.8333333333333H792.4583333333334C838.3375000000001 166.8333333333333 875.875 204.3708333333333 875.875 250.25V750.75C875.875 796.6291666666666 838.3375000000001 834.1666666666666 792.4583333333334 834.1666666666666zM458.7916666666667 542.2083333333333H396.2291666666667V563.0625H312.8125V437.9375H396.2291666666667V458.7916666666666H458.7916666666667V417.0833333333333C458.7916666666667 392.0583333333333 442.1083333333334 375.375 417.0833333333334 375.375H291.9583333333334C266.9333333333334 375.375 250.25 392.0583333333333 250.25 417.0833333333333V583.9166666666666C250.25 608.9416666666666 266.9333333333334 625.625 291.9583333333334 625.625H417.0833333333334C442.1083333333334 625.625 458.7916666666667 608.9416666666666 458.7916666666667 583.9166666666666V542.2083333333333zM750.75 542.2083333333333H688.1875V563.0625H604.7708333333334V437.9375H688.1875V458.7916666666666H750.75V417.0833333333333C750.75 392.0583333333333 729.8958333333334 375.375 709.0416666666667 375.375H583.9166666666667C558.8916666666668 375.375 542.2083333333334 392.0583333333333 542.2083333333334 417.0833333333333V583.9166666666666C542.2083333333334 608.9416666666666 558.8916666666668 625.625 583.9166666666667 625.625H709.0416666666667C729.8958333333334 625.625 750.75 608.9416666666666 750.75 583.9166666666666V542.2083333333333z" />
    <glyph glyph-name="closed"
      unicode="&#xE014;"
      horiz-adv-x="1001" d=" M888.3875 83.4166666666666L500.5 471.3041666666667L112.6125 83.4166666666666L83.4166666666667 112.6125L471.3041666666667 500.5L83.4166666666667 888.3875L112.6125 917.5833333333334L500.5 529.6958333333332L888.3875 917.5833333333334L917.5833333333334 888.3875L529.6958333333333 500.5L917.5833333333334 112.6125L888.3875 83.4166666666666z" />
    <glyph glyph-name="cross"
      unicode="&#xE015;"
      horiz-adv-x="1001" d=" M786.6191666666667 184.7679166666666L521.3541666666667 450.0329166666666L256.0891666666667 184.7679166666666L226.47625 214.3808333333333L491.74125 479.6458333333333L226.47625 744.9108333333334L256.0891666666667 774.5237500000001L521.3541666666667 509.25875L786.6191666666667 774.5237500000001L816.2320833333334 744.9108333333334L550.9670833333334 479.6458333333333L816.2320833333334 214.3808333333333z" />
    <glyph glyph-name="cross_baseline"
      unicode="&#xE016;"
      horiz-adv-x="1001" d=" M786.6191666666667 -19.6029166666667L521.3541666666667 245.6620833333333L256.0891666666667 -19.6029166666667L226.47625 10.01L491.74125 275.275L226.47625 540.54L256.0891666666667 570.1529166666667L521.3541666666667 304.8879166666667L786.6191666666667 570.1529166666667L816.2320833333334 540.54L550.9670833333334 275.275L816.2320833333334 10.01z" />
    <glyph glyph-name="cross_filled"
      unicode="&#xE017;"
      horiz-adv-x="1001" d=" M500.5 917.5833333333334C271.1041666666667 917.5833333333334 83.4166666666667 729.8958333333333 83.4166666666667 500.5C83.4166666666667 271.1041666666667 271.1041666666667 83.4166666666666 500.5 83.4166666666666S917.5833333333334 271.1041666666667 917.5833333333334 500.5C917.5833333333334 729.8958333333333 729.8958333333334 917.5833333333334 500.5 917.5833333333334zM721.5541666666668 308.6416666666666L692.3583333333335 279.4458333333332L500.5 471.3041666666667L308.6416666666667 279.4458333333335L279.4458333333334 308.6416666666668L471.3041666666667 500.5000000000001L279.4458333333334 692.3583333333333L308.6416666666667 721.5541666666666L500.5 529.6958333333332L692.3583333333335 721.5541666666666L721.5541666666668 692.3583333333333L529.6958333333333 500.5L721.5541666666668 308.6416666666666z" />
    <glyph glyph-name="download"
      unicode="&#xE018;"
      horiz-adv-x="1001" d=" M696.5291666666667 442.1083333333333L542.2083333333334 287.7874999999999L542.2083333333334 834.1666666666666L500.5 834.1666666666666L500.5 287.7874999999999L342.0083333333334 442.1083333333333L312.8125 417.0833333333333L521.3541666666667 208.5416666666666L729.8958333333334 417.0833333333333z M521.3541666666667 208.5416666666666L208.5416666666667 208.5416666666666L208.5416666666667 166.8333333333333L834.1666666666667 166.8333333333333L834.1666666666667 208.5416666666666z" />
    <glyph glyph-name="drag_handles"
      unicode="&#xE019;"
      horiz-adv-x="1001" d=" M583.9166666666667 125.125V250.25H709.0416666666667V125.125H583.9166666666667zM583.9166666666667 458.7916666666666H709.0416666666667V333.6666666666667H583.9166666666667V458.7916666666666zM583.9166666666667 667.3333333333333H709.0416666666667V542.2083333333333H583.9166666666667V667.3333333333333zM583.9166666666667 875.875H709.0416666666667V750.75H583.9166666666667V875.875zM333.6666666666667 250.25H458.7916666666667V125.125H333.6666666666667V250.25zM333.6666666666667 458.7916666666666H458.7916666666667V333.6666666666667H333.6666666666667V458.7916666666666zM333.6666666666667 667.3333333333333H458.7916666666667V542.2083333333333H333.6666666666667V667.3333333333333zM333.6666666666667 875.875H458.7916666666667V750.75H333.6666666666667V875.875z" />
    <glyph glyph-name="feedback-right"
      unicode="&#xE01A;"
      horiz-adv-x="1373.3175126997662" d=" M621.6303162890722 46.024695020209A162.12569987763732 162.12569987763732 0 0 0 396.0721940005187 46.024695020209L46.6185620527269 387.8322889243211A153.6259779747117 153.6259779747117 0 0 0 46.6185620527269 608.4538915050618A162.12569987763732 162.12569987763732 0 0 0 272.1766843412804 608.4538915050618L480.3641959286584 404.8317327301723A41.01394193333086 41.01394193333086 0 0 1 537.375431050465 404.8317327301723L1101.1408283584851 956.2372724238946A162.05146649857238 162.05146649857238 0 0 0 1326.6989506470388 956.2372724238946A153.58886128517926 153.58886128517926 0 0 0 1326.6989506470388 735.6527865326862z" />
    <glyph glyph-name="feedback-wrong"
      unicode="&#xE01B;"
      horiz-adv-x="1001" d=" M717.049666666667 501.2414814814808L956.9560000000004 260.2599999999993A148.62996296296296 148.62996296296296 0 0 0 954.4720370370374 47.1582222222214A155.71111111111114 155.71111111111114 0 0 0 737.1808888888892 49.7163333333325L501.5751481481485 286.211851851851L266.0064814814818 45.7864814814806A152.1890740740741 152.1890740740741 0 1 0 47.9367777777781 258.146777777777L284.2840000000003 499.3507037037029L44.2664444444447 740.3321851851845A148.62996296296296 148.62996296296296 0 0 0 46.7874814814818 953.4339629629623A155.71111111111114 155.71111111111114 0 0 0 264.0415555555558 950.8758518518512L499.7585185185188 714.2691111111103L735.4384074074077 954.805703703703A152.1890740740741 152.1890740740741 0 1 0 953.5081111111114 742.4454074074067z" />
    <glyph glyph-name="fullscreen-exit"
      unicode="&#xE01C;"
      horiz-adv-x="1001" d=" M208.5416666666667 333.6666666666667H333.6666666666667V208.5416666666666H417.0833333333334V417.0833333333333H208.5416666666667V333.6666666666667zM333.6666666666667 667.3333333333333H208.5416666666667V583.9166666666666H417.0833333333334V792.4583333333333H333.6666666666667V667.3333333333333zM583.9166666666667 208.5416666666666H667.3333333333334V333.6666666666667H792.4583333333334V417.0833333333333H583.9166666666667V208.5416666666666zM667.3333333333334 667.3333333333333V792.4583333333333H583.9166666666667V583.9166666666666H792.4583333333334V667.3333333333333H667.3333333333334z" />
    <glyph glyph-name="fullscreen"
      unicode="&#xE01D;"
      horiz-adv-x="1001" d=" M291.9583333333334 417.0833333333333H208.5416666666667V208.5416666666666H417.0833333333334V291.9583333333333H291.9583333333334V417.0833333333333zM208.5416666666667 583.9166666666666H291.9583333333334V709.0416666666666H417.0833333333334V792.4583333333333H208.5416666666667V583.9166666666666zM709.0416666666667 291.9583333333333H583.9166666666667V208.5416666666666H792.4583333333334V417.0833333333333H709.0416666666667V291.9583333333333zM583.9166666666667 792.4583333333333V709.0416666666666H709.0416666666667V583.9166666666666H792.4583333333334V792.4583333333333H583.9166666666667z" />
    <glyph glyph-name="info"
      unicode="&#xE01E;"
      horiz-adv-x="1001" d=" M500.5 917.5833333333334C270.2700000000001 917.5833333333334 83.4166666666667 730.73 83.4166666666667 500.5S270.2700000000001 83.4166666666666 500.5 83.4166666666666S917.5833333333334 270.27 917.5833333333334 500.5S730.73 917.5833333333334 500.5 917.5833333333334zM542.2083333333334 291.9583333333333H458.7916666666667V542.2083333333333H542.2083333333334V291.9583333333333zM542.2083333333334 625.625H458.7916666666667V709.0416666666666H542.2083333333334V625.625z" />
    <glyph glyph-name="list"
      unicode="&#xE01F;"
      horiz-adv-x="1001" d=" M125.125 458.7916666666666H208.5416666666667V542.2083333333333H125.125V458.7916666666666zM125.125 291.9583333333333H208.5416666666667V375.375H125.125V291.9583333333333zM125.125 625.625H208.5416666666667V709.0416666666666H125.125V625.625zM291.9583333333334 458.7916666666666H875.875V542.2083333333333H291.9583333333334V458.7916666666666zM291.9583333333334 291.9583333333333H875.875V375.375H291.9583333333334V291.9583333333333zM291.9583333333334 709.0416666666666V625.625H875.875V709.0416666666666H291.9583333333334z" />
    <glyph glyph-name="minus"
      unicode="&#xE020;"
      horiz-adv-x="1001" d=" M792.4583333333334 458.7916666666666H208.5416666666667V542.2083333333333H792.4583333333334V458.7916666666666z" />
    <glyph glyph-name="more_vertical"
      unicode="&#xE021;"
      horiz-adv-x="1001" d=" M479.6458333333334 417.0833333333333C446.2791666666667 417.0833333333333 417.0833333333334 446.2791666666666 417.0833333333334 479.6458333333333S446.2791666666667 542.2083333333333 479.6458333333334 542.2083333333333S542.2083333333334 513.0125 542.2083333333334 479.6458333333333S513.0125 417.0833333333333 479.6458333333334 417.0833333333333zM479.6458333333334 667.3333333333333C446.2791666666667 667.3333333333333 417.0833333333334 696.5291666666667 417.0833333333334 729.8958333333333S446.2791666666667 792.4583333333333 479.6458333333334 792.4583333333333S542.2083333333334 763.2625 542.2083333333334 729.8958333333333S513.0125 667.3333333333333 479.6458333333334 667.3333333333333zM479.6458333333334 291.9583333333333C513.0125 291.9583333333333 542.2083333333334 262.7625 542.2083333333334 229.3958333333333S513.0125 166.8333333333333 479.6458333333334 166.8333333333333S417.0833333333334 196.0291666666666 417.0833333333334 229.3958333333333S446.2791666666667 291.9583333333333 479.6458333333334 291.9583333333333z" />
    <glyph glyph-name="next_filled"
      unicode="&#xE022;"
      horiz-adv-x="1001" d=" M667.3333333333334 500.5L333.6666666666667 208.5416666666666V792.4583333333333L667.3333333333334 500.5z" />
    <glyph glyph-name="not-graded"
      unicode="&#xE023;"
      horiz-adv-x="1001" d=" M83.4166666666667 500.5C83.4166666666667 270.1512355914065 270.1512355914066 83.4166666666666 500.5 83.4166666666666C730.8487644085935 83.4166666666666 917.5833333333334 270.1512355914065 917.5833333333334 500.5C917.5833333333334 730.8487644085935 730.8487644085935 917.5833333333334 500.5 917.5833333333334C270.1512355914066 917.5833333333334 83.4166666666667 730.8487644085935 83.4166666666667 500.5z" />
    <glyph glyph-name="partial-correct"
      unicode="&#xE024;"
      horiz-adv-x="1001" d=" M500.5 917.5833333333334C271.1041666666667 917.5833333333334 83.4166666666667 729.8958333333333 83.4166666666667 500.5S271.1041666666667 83.4166666666666 500.5 83.4166666666666S917.5833333333334 271.1041666666667 917.5833333333334 500.5S729.8958333333334 917.5833333333334 500.5 917.5833333333334zM166.8333333333334 500.5C166.8333333333334 684.0166666666667 316.9833333333334 834.1666666666666 500.5 834.1666666666666S834.1666666666667 684.0166666666667 834.1666666666667 500.5H166.8333333333334z" />
    <glyph glyph-name="pause-2"
      unicode="&#xE025;"
      horiz-adv-x="1001" d=" M250.25 208.5416666666666H417.0833333333334V792.4583333333333H250.25V208.5416666666666zM583.9166666666667 792.4583333333333V208.5416666666666H750.75V792.4583333333333H583.9166666666667z" />
    <glyph glyph-name="pause-video"
      unicode="&#xE026;"
      horiz-adv-x="1001" d=" M375.375 333.6666666666667H458.7916666666667V667.3333333333333H375.375V333.6666666666667zM500.5 917.5833333333334C270.2700000000001 917.5833333333334 83.4166666666667 730.73 83.4166666666667 500.5S270.2700000000001 83.4166666666666 500.5 83.4166666666666S917.5833333333334 270.27 917.5833333333334 500.5S730.73 917.5833333333334 500.5 917.5833333333334zM500.5 166.8333333333333C316.5662500000001 166.8333333333333 166.8333333333334 316.56625 166.8333333333334 500.5S316.5662500000001 834.1666666666666 500.5 834.1666666666666S834.1666666666667 684.4337499999999 834.1666666666667 500.5S684.43375 166.8333333333333 500.5 166.8333333333333zM542.2083333333334 333.6666666666667H625.625V667.3333333333333H542.2083333333334V333.6666666666667z" />
    <glyph glyph-name="pause"
      unicode="&#xE027;"
      horiz-adv-x="1001" d=" M500.5 917.5833333333334C270.2700000000001 917.5833333333334 83.4166666666667 730.73 83.4166666666667 500.5S270.2700000000001 83.4166666666666 500.5 83.4166666666666S917.5833333333334 270.27 917.5833333333334 500.5S730.73 917.5833333333334 500.5 917.5833333333334zM458.7916666666667 333.6666666666667H375.375V667.3333333333333H458.7916666666667V333.6666666666667zM625.625 333.6666666666667H542.2083333333334V667.3333333333333H625.625V333.6666666666667z" />
    <glyph glyph-name="play-2"
      unicode="&#xE028;"
      horiz-adv-x="1001" d=" M333.6666666666667 792.4583333333333V208.5416666666666L792.4583333333334 500.5L333.6666666666667 792.4583333333333z" />
    <glyph glyph-name="play-video"
      unicode="&#xE029;"
      horiz-adv-x="1001" d=" M417.0833333333334 312.8125L667.3333333333334 500.5L417.0833333333334 688.1875V312.8125zM500.5 917.5833333333334C271.1041666666667 917.5833333333334 83.4166666666667 729.8958333333333 83.4166666666667 500.5S271.1041666666667 83.4166666666666 500.5 83.4166666666666S917.5833333333334 271.1041666666667 917.5833333333334 500.5S729.8958333333334 917.5833333333334 500.5 917.5833333333334zM500.5 166.8333333333333C316.9833333333334 166.8333333333333 166.8333333333334 316.9833333333334 166.8333333333334 500.5S316.9833333333334 834.1666666666666 500.5 834.1666666666666S834.1666666666667 684.0166666666667 834.1666666666667 500.5S684.0166666666667 166.8333333333333 500.5 166.8333333333333z" />
    <glyph glyph-name="play"
      unicode="&#xE02A;"
      horiz-adv-x="1001" d=" M500.5 917.5833333333334C270.2700000000001 917.5833333333334 83.4166666666667 730.73 83.4166666666667 500.5S270.2700000000001 83.4166666666666 500.5 83.4166666666666S917.5833333333334 270.27 917.5833333333334 500.5S730.73 917.5833333333334 500.5 917.5833333333334zM417.0833333333334 312.8125V688.1875L667.3333333333334 500.5L417.0833333333334 312.8125z" />
    <glyph glyph-name="play_filled"
      unicode="&#xE02B;"
      horiz-adv-x="1001" d=" M921.7541666666668 467.1333333333333 M742.4083333333334 475.475L362.8625000000001 241.9083333333333C350.35 233.5666666666667 333.6666666666668 241.9083333333333 333.6666666666668 258.5916666666666V742.4083333333333C333.6666666666668 759.0916666666667 350.3500000000002 767.4333333333333 362.8625000000001 759.0916666666667L742.4083333333334 508.8416666666666C754.9208333333335 500.5 754.9208333333335 479.6458333333333 742.4083333333334 475.475z" />
    <glyph glyph-name="plus"
      unicode="&#xE02C;"
      horiz-adv-x="1001" d=" M792.4583333333334 458.7916666666666H542.2083333333334V208.5416666666666H458.7916666666667V458.7916666666666H208.5416666666667V542.2083333333333H458.7916666666667V792.4583333333333H542.2083333333334V542.2083333333333H792.4583333333334V458.7916666666666z" />
    <glyph glyph-name="print"
      unicode="&#xE02D;"
      horiz-adv-x="1001" d=" M792.4583333333334 667.3333333333333H208.5416666666667C139.3058333333334 667.3333333333333 83.4166666666667 611.4441666666667 83.4166666666667 542.2083333333333V291.9583333333333H250.25V125.125H750.75V291.9583333333333H917.5833333333334V542.2083333333333C917.5833333333334 611.4441666666667 861.6941666666668 667.3333333333333 792.4583333333334 667.3333333333333zM667.3333333333334 208.5416666666666H333.6666666666667V417.0833333333333H667.3333333333334V208.5416666666666zM792.4583333333334 500.5C769.5187500000001 500.5 750.75 519.26875 750.75 542.2083333333333S769.5187500000001 583.9166666666666 792.4583333333334 583.9166666666666S834.1666666666667 565.1479166666667 834.1666666666667 542.2083333333333S815.3979166666668 500.5 792.4583333333334 500.5zM750.75 875.875H250.25V709.0416666666666H750.75V875.875z" />
    <glyph glyph-name="radio-button-selected"
      unicode="&#xE02E;"
      horiz-adv-x="1001" d=" M500.5 709.0416666666666C383.7166666666667 709.0416666666666 291.9583333333334 617.2833333333333 291.9583333333334 500.5S383.7166666666667 291.9583333333333 500.5 291.9583333333333S709.0416666666667 383.7166666666666 709.0416666666667 500.5S617.2833333333334 709.0416666666666 500.5 709.0416666666666zM500.5 917.5833333333334C271.1041666666667 917.5833333333334 83.4166666666667 729.8958333333333 83.4166666666667 500.5S271.1041666666667 83.4166666666666 500.5 83.4166666666666S917.5833333333334 271.1041666666667 917.5833333333334 500.5S729.8958333333334 917.5833333333334 500.5 917.5833333333334zM500.5 166.8333333333333C316.9833333333334 166.8333333333333 166.8333333333334 316.9833333333334 166.8333333333334 500.5S316.9833333333334 834.1666666666666 500.5 834.1666666666666S834.1666666666667 684.0166666666667 834.1666666666667 500.5S684.0166666666667 166.8333333333333 500.5 166.8333333333333z" />
    <glyph glyph-name="radio-button"
      unicode="&#xE02F;"
      horiz-adv-x="1001" d=" M500.5 917.5833333333334C271.1041666666667 917.5833333333334 83.4166666666667 729.8958333333333 83.4166666666667 500.5S271.1041666666667 83.4166666666666 500.5 83.4166666666666S917.5833333333334 271.1041666666667 917.5833333333334 500.5S729.8958333333334 917.5833333333334 500.5 917.5833333333334zM500.5 166.8333333333333C316.9833333333334 166.8333333333333 166.8333333333334 316.9833333333334 166.8333333333334 500.5S316.9833333333334 834.1666666666666 500.5 834.1666666666666S834.1666666666667 684.0166666666667 834.1666666666667 500.5S684.0166666666667 166.8333333333333 500.5 166.8333333333333z" />
    <glyph glyph-name="radio_button_normal"
      unicode="&#xE030;"
      horiz-adv-x="1001" d=" M500.5 875.875C709.0416666666667 875.875 875.875 709.0416666666666 875.875 500.5S709.0416666666667 125.125 500.5 125.125S125.125 291.9583333333333 125.125 500.5S291.9583333333334 875.875 500.5 875.875M500.5 917.5833333333334C271.1041666666667 917.5833333333334 83.4166666666667 729.8958333333333 83.4166666666667 500.5S271.1041666666667 83.4166666666666 500.5 83.4166666666666S917.5833333333334 271.1041666666667 917.5833333333334 500.5S729.8958333333334 917.5833333333334 500.5 917.5833333333334L500.5 917.5833333333334z" />
    <glyph glyph-name="radio_button_selected"
      unicode="&#xE031;"
      horiz-adv-x="1001" d=" M500.5 917.5833333333334C271.1041666666667 917.5833333333334 83.4166666666667 729.8958333333333 83.4166666666667 500.5C83.4166666666667 271.1041666666667 271.1041666666667 83.4166666666666 500.5 83.4166666666666S917.5833333333334 271.1041666666667 917.5833333333334 500.5C917.5833333333334 729.8958333333333 729.8958333333334 917.5833333333334 500.5 917.5833333333334zM500.5 125.125C291.9583333333334 125.125 125.125 291.9583333333333 125.125 500.5C125.125 709.0416666666666 291.9583333333334 875.875 500.5 875.875C709.0416666666667 875.875 875.875 709.0416666666666 875.875 500.5C875.875 291.9583333333333 709.0416666666667 125.125 500.5 125.125z M291.9583333333334 500.5C291.9583333333334 385.3256177957033 385.3256177957033 291.9583333333333 500.5 291.9583333333333C615.6743822042968 291.9583333333333 709.0416666666667 385.3256177957033 709.0416666666667 500.5C709.0416666666667 615.6743822042968 615.6743822042968 709.0416666666666 500.5 709.0416666666666C385.3256177957033 709.0416666666666 291.9583333333334 615.6743822042968 291.9583333333334 500.5z" />
    <glyph glyph-name="refresh"
      unicode="&#xE032;"
      horiz-adv-x="1001" d=" M500.5 875.875C592.2583333333333 875.875 671.5041666666667 842.5083333333333 738.2375000000001 792.4583333333333H625.625V750.75H792.4583333333334V917.5833333333334H750.75V834.1666666666666C679.8458333333334 888.3875 596.4291666666667 917.5833333333334 500.5 917.5833333333334C271.1041666666667 917.5833333333334 83.4166666666667 729.8958333333333 83.4166666666667 500.5C83.4166666666667 475.475 87.5875 450.45 91.7583333333333 425.425H133.4666666666667C125.125 450.45 125.125 475.475 125.125 500.5C125.125 709.0416666666666 291.9583333333334 875.875 500.5 875.875z M896.7291666666667 625.625H855.0208333333334C867.5333333333334 588.0875 875.875 546.3791666666666 875.875 500.5C875.875 291.9583333333333 704.8708333333333 125.125 500.5 125.125C408.7416666666668 125.125 329.4958333333334 158.4916666666667 262.7625 208.5416666666666H333.6666666666667V250.25H216.8833333333334H187.6875H166.8333333333334V83.4166666666666H208.5416666666667V204.3708333333333C283.6166666666667 129.2958333333332 387.8875000000001 83.4166666666666 500.5 83.4166666666666C729.8958333333334 83.4166666666666 917.5833333333334 271.1041666666667 917.5833333333334 500.5C917.5833333333334 542.2083333333333 909.2416666666668 588.0875 896.7291666666667 625.625z" />
    <glyph glyph-name="replay-video"
      unicode="&#xE033;"
      horiz-adv-x="1001" d=" M500.5 792.4583333333333V959.2916666666666L291.9583333333334 750.75L500.5 542.2083333333333V709.0416666666666C638.1375 709.0416666666666 750.75 596.4291666666667 750.75 458.7916666666666S638.1375 208.5416666666666 500.5 208.5416666666666S250.25 321.1541666666666 250.25 458.7916666666666H166.8333333333334C166.8333333333334 275.275 316.9833333333334 125.125 500.5 125.125S834.1666666666667 275.275 834.1666666666667 458.7916666666666S684.0166666666667 792.4583333333333 500.5 792.4583333333333z" />
    <glyph glyph-name="reset"
      unicode="&#xE034;"
      horiz-adv-x="1001" d=" M792.4583333333334 667.3333333333333L625.625 500.5H750.75C750.75 362.4454166666666 638.5545833333334 250.25 500.5 250.25C458.3745833333334 250.25 418.3345833333334 260.6770833333333 383.7166666666667 279.4458333333332L322.8225 218.5516666666665C374.1237500000001 186.0191666666667 435.0179166666667 166.8333333333333 500.5 166.8333333333333C684.8508333333334 166.8333333333333 834.1666666666667 316.1491666666666 834.1666666666667 500.5H959.2916666666669L792.4583333333334 667.3333333333333zM250.25 500.5C250.25 638.5545833333333 362.4454166666667 750.75 500.5 750.75C542.6254166666666 750.75 582.6654166666667 740.3229166666666 617.2833333333334 721.5541666666666L678.1775000000001 782.4483333333333C626.87625 814.9808333333333 565.9820833333333 834.1666666666666 500.5 834.1666666666666C316.1491666666667 834.1666666666666 166.8333333333334 684.8508333333333 166.8333333333334 500.5H41.7083333333333L208.5416666666667 333.6666666666667L375.375 500.5H250.25z" />
    <glyph glyph-name="settings"
      unicode="&#xE035;"
      horiz-adv-x="1001" d=" M125.125 291.9583333333333V208.5416666666666H375.375V291.9583333333333H125.125zM125.125 792.4583333333333V709.0416666666666H542.2083333333334V792.4583333333333H125.125zM542.2083333333334 125.125V208.5416666666666H875.875V291.9583333333333H542.2083333333334V375.375H458.7916666666667V125.125H542.2083333333334zM291.9583333333334 625.625V542.2083333333333H125.125V458.7916666666666H291.9583333333334V375.375H375.375V625.625H291.9583333333334zM875.875 458.7916666666666V542.2083333333333H458.7916666666667V458.7916666666666H875.875zM625.625 625.625H709.0416666666667V709.0416666666666H875.875V792.4583333333333H709.0416666666667V875.875H625.625V625.625z" />
    <glyph glyph-name="simulate"
      unicode="&#xE036;"
      horiz-adv-x="1001" d=" M667.3333333333334 750.75L762.8454166666667 655.2379166666667L559.30875 451.7012500000001L392.4754166666667 618.5345833333333L83.4166666666667 309.0587499999999L142.2254166666667 250.25L392.4754166666667 500.5L559.30875 333.6666666666667L822.0712500000001 596.0120833333333L917.5833333333334 500.5V750.75z" />
    <glyph glyph-name="skip-question"
      unicode="&#xE037;"
      horiz-adv-x="1001" d=" M538.0375 500.5C538.0375 504.6708333333333 538.0375 504.6708333333333 533.8666666666667 508.8416666666666L358.6916666666667 684.0166666666667C354.5208333333334 688.1875 346.1791666666666 688.1875 342.0083333333334 684.0166666666667C342.0083333333334 684.0166666666667 342.0083333333334 684.0166666666667 342.0083333333334 684.0166666666667L325.325 663.1625C321.1541666666667 658.9916666666667 321.1541666666667 650.65 325.325 646.4791666666666C325.325 646.4791666666666 325.325 646.4791666666666 325.325 646.4791666666666L471.3041666666667 500.5L325.3250000000001 354.5208333333333C321.1541666666668 350.35 321.1541666666668 342.0083333333332 325.3250000000001 337.8375C325.3250000000001 337.8375 325.3250000000001 337.8375 325.3250000000001 337.8375L342.0083333333334 321.1541666666666C346.1791666666668 316.9833333333333 354.5208333333335 316.9833333333333 358.6916666666667 321.1541666666666C358.6916666666667 321.1541666666666 358.6916666666667 321.1541666666666 358.6916666666667 321.1541666666666L533.8666666666667 496.3291666666666C533.8666666666667 496.3291666666667 538.0375 496.3291666666667 538.0375 500.5zM679.8458333333334 500.5C679.8458333333334 504.6708333333333 679.8458333333334 504.6708333333333 675.675 508.8416666666666L500.5 684.0166666666667C496.3291666666667 688.1875 487.9875 688.1875 483.8166666666667 684.0166666666667C483.8166666666667 684.0166666666667 483.8166666666667 684.0166666666667 483.8166666666667 684.0166666666667L467.1333333333333 667.3333333333333C462.9625 663.1625 462.9625 654.8208333333332 467.1333333333333 650.65C467.1333333333333 650.65 467.1333333333333 650.65 467.1333333333333 650.65L613.1125 504.6708333333333L467.1333333333333 358.6916666666666C462.9625 354.5208333333333 462.9625 346.1791666666666 467.1333333333333 342.0083333333332C467.1333333333333 342.0083333333332 467.1333333333333 342.0083333333332 467.1333333333333 342.0083333333332L483.8166666666667 325.3250000000001C487.9875 321.1541666666666 496.3291666666667 321.1541666666666 500.5 325.3250000000001C500.5 325.3250000000001 500.5 325.3250000000001 500.5 325.3250000000001L675.675 500.5C679.8458333333334 496.3291666666667 679.8458333333334 496.3291666666667 679.8458333333334 500.5L679.8458333333334 500.5z" />
    <glyph glyph-name="skipped"
      unicode="&#xE038;"
      horiz-adv-x="1001" d=" M83.4166666666667 500.5C83.4166666666667 270.1512355914065 270.1512355914066 83.4166666666666 500.5 83.4166666666666C730.8487644085935 83.4166666666666 917.5833333333334 270.1512355914065 917.5833333333334 500.5C917.5833333333334 730.8487644085935 730.8487644085935 917.5833333333334 500.5 917.5833333333334C270.1512355914066 917.5833333333334 83.4166666666667 730.8487644085935 83.4166666666667 500.5z M624.9576666666683 253.6283750000007L420.2948750000016 457.1650416666673L472.4302916666683 514.2637500000006L583.2493333333349 408.0326250000006L583.9166666666667 625.625H333.6666666666667V333.6666666666667H250.25V709.0416666666666L666.666 710.2094999999999V408.032625L772.2297916666668 515.5567083333333L825.6581666666667 455.8720833333333z" />
    <glyph glyph-name="tick"
      unicode="&#xE039;"
      horiz-adv-x="1001" d=" M354.5208333333334 204.7879166666667L329.9129166666667 229.3958333333333L155.155 404.15375L179.7629166666667 428.7616666666667L354.5208333333334 254.00375L864.1966666666667 763.6795833333333L888.8045833333333 739.0716666666667L379.1287500000001 229.3958333333333z" />
    <glyph glyph-name="tick_baseline"
      unicode="&#xE03A;"
      horiz-adv-x="1001" d=" M154.3208333333334 198.1145833333333L354.5208333333334 0L888.3875 533.8666666666667L863.3625000000001 558.8916666666667L354.5208333333334 47.9645833333332L179.3458333333333 223.1395833333334L154.3208333333334 198.1145833333333z" />
    <glyph glyph-name="tick_filled"
      unicode="&#xE03B;"
      horiz-adv-x="1001" d=" M500.5 917.5833333333334C271.1041666666667 917.5833333333334 83.4166666666667 729.8958333333333 83.4166666666667 500.5C83.4166666666667 271.1041666666667 271.1041666666667 83.4166666666666 500.5 83.4166666666666S917.5833333333334 271.1041666666667 917.5833333333334 500.5C917.5833333333334 729.8958333333333 729.8958333333334 917.5833333333334 500.5 917.5833333333334zM442.1083333333334 337.8375L442.1083333333334 337.8375L412.9125 308.6416666666666L237.7375 483.8166666666665L266.9333333333334 513.0124999999998L412.9125 367.0333333333332L738.2375000000001 692.3583333333331L767.4333333333333 663.1624999999999L442.1083333333334 337.8375z" />
    <glyph glyph-name="transcript"
      unicode="&#xE03C;"
      horiz-adv-x="1001" d=" M542.2083333333334 709.0416666666666H709.0416666666667V792.4583333333333H291.9583333333334V709.0416666666666H458.7916666666667V250.25H542.2083333333334V709.0416666666666L542.2083333333334 709.0416666666666z" />
    <glyph glyph-name="volume-mute"
      unicode="&#xE03D;"
      horiz-adv-x="1001" d=" M688.1875 500.5C688.1875 575.575 646.4791666666667 638.1375 583.9166666666667 667.3333333333333V575.575L688.1875 475.475C688.1875 483.8166666666666 688.1875 492.1583333333334 688.1875 500.5zM792.4583333333334 500.5C792.4583333333334 462.9625 784.1166666666668 425.425 771.6041666666667 392.0583333333333L834.1666666666667 329.4958333333333C863.3625000000001 379.5458333333333 875.875 437.9374999999999 875.875 500.4999999999999C875.875 679.8458333333333 750.75 829.9958333333333 583.9166666666667 867.5333333333333V779.9458333333333C704.8708333333333 746.5791666666667 792.4583333333334 633.9666666666667 792.4583333333334 500.5zM179.3458333333333 875.875L125.125 821.6541666666667L321.1541666666667 625.625H125.125V375.375H291.9583333333334L500.5 166.8333333333333V446.2791666666666L679.8458333333334 266.9333333333333C650.6500000000001 246.0791666666666 621.4541666666668 229.3958333333333 583.9166666666667 216.8833333333332V129.2958333333332C642.3083333333334 141.8083333333333 692.3583333333335 171.0041666666665 738.2375000000001 204.3708333333333L821.6541666666667 120.9541666666666L875.875 175.175L500.5 550.55L179.3458333333333 875.875zM500.5 834.1666666666666L412.9125 746.5791666666667L500.5 658.9916666666667V834.1666666666666z" />
    <glyph glyph-name="volume"
      unicode="&#xE03E;"
      horiz-adv-x="1001" d=" M125.125 625.625V375.375H291.9583333333334L500.5 166.8333333333333V834.1666666666666L291.9583333333334 625.625H125.125zM688.1875 500.5C688.1875 575.575 646.4791666666667 638.1375 583.9166666666667 667.3333333333333V333.6666666666667C646.4791666666667 362.8625 688.1875 425.425 688.1875 500.5zM583.9166666666667 867.5333333333333V779.9458333333333C704.8708333333333 742.4083333333333 792.4583333333334 633.9666666666667 792.4583333333334 500.5S704.8708333333333 254.4208333333334 583.9166666666667 221.0541666666667V133.4666666666666C750.75 171.0041666666665 875.875 321.1541666666666 875.875 500.5S750.75 829.9958333333334 583.9166666666667 867.5333333333333z" />
  </font>
</defs>
</svg>
