<?xml version="1.0" encoding="utf-8"?>
<!-- Generator: Adobe Illustrator 22.1.0, SVG Export Plug-In . SVG Version: 6.00 Build 0)  -->
<svg version="1.1" id="Layer_2_1_" xmlns="http://www.w3.org/2000/svg" xmlns:xlink="http://www.w3.org/1999/xlink" x="0px" y="0px"
	 viewBox="0 0 111 111" style="enable-background:new 0 0 111 111;" xml:space="preserve">
<g>
	<path d="M56.9,10.8c6.4,0.3,12.1,3.6,16.5,9.7c5.8,8.1,8.7,20.3,8.6,35.4l0,0.1V56c0,26.3-11.1,44-27.5,44h-0.4
		c-1.3,0-7.4-0.4-13.2-5.8C33.5,87.3,29.4,74.7,29,57.9C28.9,39.1,33,24.7,40.6,17c4.1-4.1,9.3-6.2,15.3-6.2H56.9 M57.1,0.8h-1.2
		C35.1,0.8,18.8,18.8,19,58c1.1,46.7,27.5,51.9,35,52h0.5C76,110,92,89.2,92,56C92.4,18.9,75.4,1.4,57.1,0.8L57.1,0.8z"/>
</g>
</svg>
