<?xml version="1.0" encoding="utf-8"?>
<!-- Generator: Adobe Illustrator 22.1.0, SVG Export Plug-In . SVG Version: 6.00 Build 0)  -->
<svg version="1.1" id="Layer_1" xmlns="http://www.w3.org/2000/svg" xmlns:xlink="http://www.w3.org/1999/xlink" x="0px" y="0px"
	 viewBox="0 0 111 111" style="enable-background:new 0 0 111 111;" xml:space="preserve">
<polyline points="5,1 15,1 15,110 5,110 5,1 "/>
<g>
	<path d="M70.9,10.9c6.5,0.3,12.2,3.6,16.5,9.7c5.8,8.1,8.7,20.3,8.6,35.4l0,0.1v0.1c0,13.7-3.1,25.7-8.8,33.6
		c-3.4,4.7-9.4,10.4-18.6,10.4h-0.5c-1.3,0-7.4-0.5-13.2-5.8C47.5,87.4,43.4,74.8,43,58c-0.1-18.7,4-33.2,11.6-40.8
		c4.1-4.2,9.3-6.3,15.3-6.3H70.9 M71.1,0.9h-1.2c-20.8,0-37.1,18-36.9,57.2c1.1,46.7,27.5,51.9,35,52h0.5c21.5,0,37.5-20.8,37.5-54
		C106.4,19,89.4,1.5,71.1,0.9L71.1,0.9z"/>
</g>
</svg>
