<svg id="Layer_1" data-name="Layer 1" xmlns="http://www.w3.org/2000/svg" width="111" height="111" viewBox="0 0 111 111"><title>2-01</title><path d="M88,99.89v10H23l1-10H88m-55,9.26-10,.74.24-10.17,10,1.27L33,109.15m-2.5-1.55-7.26-7.88S57.71,65.28,65,54.89l8.19,5.75c-7.5,10.67-39.11,43.17-42.69,47M71.75,62.27,65,54.89c7-7.89,14.13-20,11.24-31.26-1.56-6.1-6.3-10.3-16.24-12.74-22.17-1.09-23.78,17.34-24,20L26,30C27.25,15.4,37-.25,60.49.9h1l.93.23C79.3,5.26,84.42,15,86,21.13c4,15.73-5.87,33.52-14.18,41.12M33,109.15l-10,.74h0Zm-10,.74,1-10Zm7.5-2.29-7.26-6.88h0Zm2.74-6.6-10-.27h0ZM71.75,62.27,65,54.89h0Zm1.44-1.63L65,54.89h0Z"/></svg>