<?xml version="1.0" encoding="utf-8"?>
<!-- Generator: Adobe Illustrator 22.1.0, SVG Export Plug-In . SVG Version: 6.00 Build 0)  -->
<svg version="1.1" id="Layer_1" xmlns="http://www.w3.org/2000/svg" xmlns:xlink="http://www.w3.org/1999/xlink" x="0px" y="0px"
	 viewBox="0 0 111 111" style="enable-background:new 0 0 111 111;" xml:space="preserve">
<path d="M33.8,33.8l-10,0.2c0-1.2,0-16,10-25.5c5.3-5,13.5-8.5,26-7.6l-0.7,10c-8.1-0.6-14.3,1-18.4,4.9
	C33.8,22.4,33.8,33.7,33.8,33.8L33.8,33.8 M58,10.8L59.9,1c12.8,2.5,19.3,9.1,21.9,16.7c4.2,12.1-1.2,26.8-5.9,32.3
	c-8.4,9.7-26,8.1-27,8v-9c0,0,15.5-1.1,19.4-5.6c2.5-2.9,6.9-14,4-22.5C71.7,19,69.6,13.1,58,10.8 M58.9,58.2l-10-0.2l0.2-8.9
	l10,0.2L58.9,58.2 M49.1,58v-9c1.5-0.1,32.4-2.7,37.7,25L77,75.9C73.4,57.3,50.1,58,50.1,58 M76.9,75.2l9.9-1.2
	c1.2,10.6-1.7,18.5-6.3,24.1c-6.4,7.9-15.8,11.4-20.7,11.9c-8.4,0.8-18.4-1.4-25.7-8c-6-5.4-10.3-13.9-10.4-26h10
	c0,8.2,2.4,14.5,7,18.7c5,4.2,11.5,6.2,18,5.4c2.6-0.3,9.4-2.6,13.9-8.2C76.4,87.5,77.7,82,76.9,75.2 M59.1,11l0.7-10l0,0L59.1,11z
	 M58,10.8L59.9,1l0,0L58,10.8z M50.1,57L50,58l0,0l-0.6-5.5L48.9,58l0,0l0.6-5.5l-0.4-3.4l0,0l0.4,3.4l0.3-3.4l0,0l0.1,1l-0.1-1
	l9.3,0.2l-9.3-0.2l-0.3,3.4L50,58l8.8,0.2L50,58L50.1,57L50.1,57L50.1,57z M77,75.9l9.9-1.9l0,0L77,75.9z M76.9,75.2l10-1.2l0,0
	L76.9,75.2L76.9,75.2z"/>
</svg>
