<?xml version="1.0" encoding="utf-8"?>
<!-- Generator: Adobe Illustrator 22.1.0, SVG Export Plug-In . SVG Version: 6.00 Build 0)  -->
<svg version="1.1" id="Layer_1" xmlns="http://www.w3.org/2000/svg" xmlns:xlink="http://www.w3.org/1999/xlink" x="0px" y="0px"
	 viewBox="0 0 111 111" style="enable-background:new 0 0 111 111;" xml:space="preserve">
<path d="M79,10.5H28v-10h51V10.5L79,10.5z M38,0.4v58H28v-58H38z M28.4,48.5l10.1,0.4l-0.4,10L28,58.5L28.4,48.5z M30.1,53
	c0.8-1.1,8.6-11.3,21.7-13.1c5.9-0.9,15.2-0.2,25.3,7.6l0.8,0.6l0.7,0.8c8.7,10.2,11,28.3,5.3,42.1c-4.7,11.4-14.2,18.4-26.1,19.4
	c-11.6,0.9-19.3-3.4-23.8-7.3c-5.9-5.1-9.5-12.3-10-20.1l10-0.7c0.4,5.1,2.7,9.8,6.6,13.2c3.8,3.3,9.4,5.4,16.4,4.8
	c9-0.7,14.7-6.2,17.6-13.2C79,76.7,77.2,62.7,71,55.5c-6.8-5.2-12.8-6.4-17.8-5.7c-9.3,1.3-15.1,9.1-15.1,9.1L30.1,53z M28,10.5v-10
	l0,0V10.5L28,10.5z M28,58.5l0.4-10L28,58.5z M38.2,57.9l-0.6,0.6l0,0L30.1,53l7.5,5.5l0,0L38.2,57.9L38.2,57.9L38.2,57.9z
	 M38.2,57.9l0.4-9L38.2,57.9z"/>
</svg>
