<svg id="Layer_1" data-name="Layer 1" xmlns="http://www.w3.org/2000/svg" width="111" height="111" viewBox="0 0 111 111"><title>6-01</title><path d="M68.4,1.09l-29,61-.14.32-.16.32c-.46.88-11.32,22.68,3.81,33.16C58.47,106.67,70.57,92.11,70.68,92l8.08,5.89c-3.37,4.61-21,20.48-41.54,6.27-22.26-15.41-7.64-44.74-7-46l28-57H68.4Zm1.88,91.56a23.79,23.79,0,0,1,1.81-2.93c2.47-3.58,6.6-9.58,1.72-23.23C69.64,54.85,56.32,55.07,56.18,55.08l-.56-10c4-.23,21.6,1.23,27.6,18,6.61,18.48.09,27.94-2.89,32.27a18.19,18.19,0,0,0-1.11,1.73l-8.94-4.47ZM56.34,55.06c-6.67.75-9.44,1.06-17.31,8.39l-6.81-7.33c9.57-8.9,14.44-10,23-11ZM78.76,97.85l-4.19-3,4.65,2.32a5,5,0,0,1-.46.73Zm-4.19-3L70.28,92.7a4.76,4.76,0,0,1,.4-.69ZM56.18,55.08,56,52.2l.32,2.86h-.16ZM56,52.2l-.8-7.08h.4Z"/></svg>