<?xml version="1.0" encoding="utf-8"?>
<!-- Generator: Adobe Illustrator 22.1.0, SVG Export Plug-In . SVG Version: 6.00 Build 0)  -->
<svg version="1.1" id="Layer_1" xmlns="http://www.w3.org/2000/svg" xmlns:xlink="http://www.w3.org/1999/xlink" x="0px" y="0px"
	 viewBox="0 0 111 111" style="enable-background:new 0 0 111 111;" xml:space="preserve">
<path d="M57.1,45.1L56,55c-5.3-0.8-10.4-2.5-15.1-5.2c-6.9-4.1-13.2-11.3-12-23.8c2.8-26.6,26.2-25.3,31-25C68,1.5,82.9,9.7,83,26
	c0.1,20.3-8.9,23.5-20.4,27.3c-0.8,0.3-1.7,0.5-2.6,0.7c-13.3,3-27,6.9-27,27c0.1,4.5,1.9,8.9,5.3,12c4.5,4.4,10.5,6.9,16.7,7
	c6.3,0,13.6-1.7,18.3-6.7C76.4,90,78.4,85,78,78.1c-1.2-21.7-24-23-24-23l0.6-10c11,0.6,32,8.2,33.4,32.4
	c0.7,11.5-3.7,18.7-7.4,22.7c-5.9,6.3-14.9,9.8-25.5,9.8c-8.9-0.1-17.5-3.7-23.9-9.9c-5.2-5-8.2-11.8-8.2-19
	c0-28.9,22.6-34,34.8-36.8c0.6-0.1,1.1-0.3,1.7-0.5C69.9,40.4,73,39.3,73,26.1C73,15.4,62.3,11.2,59.3,11
	c-16.5-0.9-19.6,8.1-20.4,16c-0.7,6.5,1.5,10.9,7.1,14.2C49.5,43.1,53.2,44.4,57.1,45.1L57.1,45.1"/>
</svg>
