<?xml version="1.0" encoding="utf-8"?>
<!-- Generator: Adobe Illustrator 22.1.0, SVG Export Plug-In . SVG Version: 6.00 Build 0)  -->
<svg version="1.1" id="Layer_1" xmlns="http://www.w3.org/2000/svg" xmlns:xlink="http://www.w3.org/1999/xlink" x="0px" y="0px"
	 viewBox="0 0 111 111" style="enable-background:new 0 0 111 111;" xml:space="preserve">
<style type="text/css">
	.st0{fill:#020202;}
</style>
<path class="st0" d="M76.6,110V29.3l10,0.7v80L76.6,110z M76.6,29.4c0-3.2-0.9-6.4-2.4-9.1C70.8,14.6,64,11.5,54,11
	c-6.2-0.3-12.4,3.1-16.2,8.9c-4.4,6.8-4.6,15.4-0.4,23.6c1.9,3.7,11.4,9.9,21.2,8.8c8.9-1,15-7.6,18.2-19.8l9.7,2.5
	c-4.8,18.6-15.7,26-26.8,27.2C46.4,63.7,32.7,56.1,28.5,48c-6.4-12.5-4.8-24.7,0.9-33.6C35,5.9,44.5,0.5,54.5,1
	c16.2,0.8,24.2,7.5,28.2,14.2c2.6,4.4,3.9,9.5,3.8,14.6L76.6,29.4z M86.6,30l-5.3-0.4l5.3,0.2V30z M81.3,29.6l-4.7-0.2v-0.1
	L81.3,29.6L81.3,29.6z"/>
</svg>
