<svg x="0" y="0" width="540" height="405" version="1.1" xmlns="http://www.w3.org/2000/svg" xmlns:xlink="http://www.w3.org/1999/xlink"><g fill="#ff0000" stroke="none" stroke-width="1" stroke-linecap="butt" stroke-linejoin="miter" stroke-miterlimit="10" stroke-dasharray="" stroke-dashoffset="0" font-family="sans-serif" font-weight="normal" font-size="12" text-anchor="start" mix-blend-mode="normal"><path d="M50.7063,158.9616c-7.21974,-38.23979 -7.21974,-38.23979 -28.26122,-47.45541c-21.04148,-9.21562 -21.04148,-9.21562 -21.04148,50.98695c0,60.20257 0,60.20257 28.26122,47.45541c28.26122,-12.74715 28.26122,-12.74715 21.04148,-50.98695z"/><path d="M16.60527,331.96885c-15.84945,-7.90227 -15.84945,-7.90227 -15.84945,31.57519c0,39.47746 0,39.47746 6.57202,39.47746c6.57202,0 6.57202,0 15.84945,-31.57519c9.27743,-31.57519 9.27743,-31.57519 -6.57202,-39.47746z"/><path d="M70.08838,98.30687c25.45903,-17.20376 25.45903,-17.20376 28.25055,-56.3138c2.79151,-39.11004 2.79151,-39.11004 -46.50051,-39.11004c-49.29203,0 -49.29203,0 -49.29203,47.09818c0,47.09818 0,47.09818 21.04148,56.3138c21.04148,9.21562 21.04148,9.21562 46.50051,-7.98813z"/><path d="M79.999,207.97965c18.33578,11.21945 18.33578,11.21945 45.5755,0.46422c27.23972,-10.75524 27.23972,-10.75524 29.08967,-53.17472c1.84995,-42.41949 1.84995,-42.41949 -27.33621,-55.90777c-29.18615,-13.48828 -29.18615,-13.48828 -54.64519,3.71548c-25.45903,17.20376 -25.45903,17.20376 -18.23929,55.44355c7.21974,38.23979 7.21974,38.23979 25.55552,49.45925z"/><path d="M45.45329,333.59001c11.27763,-1.50862 11.27763,-1.50862 31.46191,-13.34994c20.18428,-11.84132 20.18428,-11.84132 19.46992,-53.51814c-0.71436,-41.67682 -0.71436,-41.67682 -19.05014,-52.89627c-18.33578,-11.21945 -18.33578,-11.21945 -46.597,1.5277c-28.26122,12.74715 -28.26122,12.74715 -28.26122,58.34395c0,45.59679 0,45.59679 15.84945,53.49906c15.84945,7.90227 15.84945,7.90227 27.12708,6.39365z"/><path d="M118.44409,402.71899c34.47883,0 34.47883,0 35.22547,-31.2981c0.74664,-31.2981 0.74664,-31.2981 -26.43252,-44.92513c-27.17916,-13.62703 -27.17916,-13.62703 -47.36344,-1.78571c-20.18428,11.84132 -20.18428,11.84132 -8.04631,44.92513c12.13797,33.08381 12.13797,33.08381 46.6168,33.08381z"/><path d="M212.75581,3.95269c6.74886,-3.77867 6.74886,-3.77867 -6.44059,-3.77867c-13.18945,0 -13.18945,0 -6.74886,3.77867c6.44059,3.77867 6.44059,3.77867 13.18945,0z"/><path d="M188.48526,93.83641c29.18531,-14.03804 29.18531,-14.03804 22.1597,-48.81965c-7.0256,-34.78161 -7.0256,-34.78161 -13.46619,-38.56028c-6.44059,-3.77867 -6.44059,-3.77867 -48.55434,-3.77867c-42.11375,0 -42.11375,0 -44.90527,39.11004c-2.79151,39.11004 -2.79151,39.11004 26.39464,52.59832c29.18615,13.48828 29.18615,13.48828 58.37146,-0.54976z"/><path d="M238.51258,199.30713c28.47736,-16.0334 28.47736,-16.0334 31.0034,-50.95719c2.52604,-34.92379 2.52604,-34.92379 -23.24606,-49.31898c-25.7721,-14.39519 -25.7721,-14.39519 -54.9574,-0.35715c-29.18531,14.03804 -29.18531,14.03804 -31.03525,56.45753c-1.84995,42.41949 -1.84995,42.41949 23.954,51.31434c25.80395,8.89486 25.80395,8.89486 54.28131,-7.13855z"/><path d="M129.64719,321.98826c27.17916,13.62703 27.17916,13.62703 55.85423,2.34929c28.67507,-11.27774 28.67507,-11.27774 25.15015,-57.16423c-3.52493,-45.8865 -3.52493,-45.8865 -29.32887,-54.78135c-25.80395,-8.89486 -25.80395,-8.89486 -53.04366,1.86038c-27.23972,10.75524 -27.23972,10.75524 -26.52536,52.43206c0.71436,41.67682 0.71436,41.67682 27.89352,55.30385z"/><path d="M240.37492,328.25436c-23.51534,-10.57504 -23.51534,-10.57504 -52.19042,0.70269c-28.67507,11.27774 -28.67507,11.27774 -29.42171,42.57584c-0.74664,31.2981 -0.74664,31.2981 49.82238,31.2981c50.56902,0 50.56902,0 52.93706,-32.0008c2.36804,-32.0008 2.36804,-32.0008 -21.14731,-42.57584z"/><path d="M343.00039,3.20307c4.92592,-3.06205 4.92592,-3.06205 -5.14926,-3.06205c-10.07518,0 -10.07518,0 -4.92592,3.06205c5.14926,3.06205 5.14926,3.06205 10.07518,0z"/><path d="M249.1282,94.21122c25.7721,14.39519 25.7721,14.39519 50.19473,0.90298c24.42263,-13.49222 24.42263,-13.49222 29.94633,-49.89342c5.5237,-36.4012 -4.77483,-42.52531 -55.62073,-42.52531c-50.8459,0 -50.8459,0 -57.59476,3.77867c-6.74886,3.77867 -6.74886,3.77867 0.27674,38.56028c7.0256,34.78161 7.0256,34.78161 32.7977,49.1768z"/><path d="M364.39147,218.36857c31.97431,-10.02505 31.97431,-10.02505 32.16588,-53.31542c0.19157,-43.29037 0.19157,-43.29037 -34.7273,-60.76561c-34.91887,-17.47524 -34.91887,-17.47524 -59.3415,-3.98303c-24.42263,13.49222 -24.42263,13.49222 -26.94867,48.41601c-2.52604,34.92379 -2.52604,34.92379 27.17562,57.29844c29.70166,22.37465 29.70166,22.37465 61.67597,12.34961z"/><path d="M243.34786,323.30094c23.51534,10.57504 23.51534,10.57504 45.44699,2.08787c21.93165,-8.48717 21.93165,-8.48717 31.13876,-50.12029c9.20711,-41.63312 9.20711,-41.63312 -20.49456,-64.00777c-29.70166,-22.37465 -29.70166,-22.37465 -58.17903,-6.34125c-28.47736,16.0334 -28.47736,16.0334 -24.95244,61.9199c3.52493,45.8865 3.52493,45.8865 27.04027,56.46154z"/><path d="M346.15278,341.10377c-32.72514,-19.13019 -32.72514,-19.13019 -54.65679,-10.64302c-21.93165,8.48717 -21.93165,8.48717 -24.29969,40.48797c-2.36804,32.0008 -2.36804,32.0008 56.78178,32.0008c59.14982,0 59.14982,0 57.02482,-21.35777c-2.125,-21.35777 -2.125,-21.35777 -34.85014,-40.48797z"/><path d="M446.70416,1.91283c3.45426,-1.82862 3.45426,-1.82862 -4.76951,-1.82862c-8.22377,0 -8.22377,0 -3.45426,1.82862c4.76951,1.82862 4.76951,1.82862 8.22377,0z"/><path d="M422.15654,104.14256c22.78481,-12.63408 22.78481,-12.63408 20.5877,-55.10987c-2.19712,-42.4758 -11.73614,-46.13304 -52.02358,-46.13304c-40.28744,0 -50.13928,6.1241 -55.66298,42.52531c-5.5237,36.4012 -5.5237,36.4012 29.39518,53.87645c34.91887,17.47524 34.91887,17.47524 57.70369,4.84116z"/><path d="M476.93908,219.66748c36.97436,-11.94487 36.97436,-11.94487 35.32637,-57.7428c-1.64799,-45.79792 -1.64799,-45.79792 -32.74357,-55.45376c-31.09557,-9.65584 -31.09557,-9.65584 -53.88039,2.97824c-22.78481,12.63408 -22.78481,12.63408 -22.97638,55.92445c-0.19157,43.29037 -0.19157,43.29037 18.55402,54.76456c18.74559,11.47419 18.74559,11.47419 55.71995,-0.47069z"/><path d="M409.36624,335.65397c27.77136,-20.59652 27.77136,-20.59652 27.20187,-59.31417c-0.56949,-38.71765 -0.56949,-38.71765 -19.31508,-50.19184c-18.74559,-11.47419 -18.74559,-11.47419 -50.7199,-1.44914c-31.97431,10.02505 -31.97431,10.02505 -41.18142,51.65816c-9.20711,41.63312 -9.20711,41.63312 23.51803,60.76331c32.72514,19.13019 32.72514,19.13019 60.4965,-1.46633z"/><path d="M445.73459,402.90671c56.58309,0 56.58309,0 57.01631,-26.97388c0.43323,-26.97388 0.43323,-26.97388 -30.93672,-41.9543c-31.36995,-14.98042 -31.36995,-14.98042 -59.14131,5.61611c-27.77136,20.59652 -27.77136,20.59652 -25.64636,41.9543c2.125,21.35777 2.125,21.35777 58.70808,21.35777z"/><path d="M481.23704,101.04438c31.09557,9.65584 31.09557,9.65584 43.72962,0.94168c12.63404,-8.71416 12.63404,-8.71416 12.63404,-53.96026c0,-45.2461 0,-45.2461 -42.47248,-45.2461c-42.47248,0 -49.38099,3.65724 -47.18387,46.13304c2.19712,42.4758 2.19712,42.4758 33.29269,52.13163z"/><path d="M528.37241,213.75819c10.98605,6.25454 10.98605,6.25454 10.98605,-54.51208c0,-60.76663 0,-60.76663 -12.63404,-52.05247c-12.63404,8.71416 -12.63404,8.71416 -10.98605,54.51208c1.64799,45.79792 1.64799,45.79792 12.63404,52.05247z"/><path d="M474.07575,329.75396c31.36995,14.98042 31.36995,14.98042 47.39092,5.13606c16.02096,-9.84436 16.02096,-9.84436 16.02096,-59.3884c0,-49.54404 0,-49.54404 -10.98605,-55.79858c-10.98605,-6.25454 -10.98605,-6.25454 -47.96041,5.69033c-36.97436,11.94487 -36.97436,11.94487 -36.40487,50.66252c0.56949,38.71765 0.56949,38.71765 31.93944,53.69807z"/><path d="M506.66727,376.20088c-0.43323,26.97388 -0.43323,26.97388 16.02096,26.97388c16.45419,0 16.45419,0 16.45419,-36.81824c0,-36.81824 0,-36.81824 -16.02096,-26.97388c-16.02096,9.84436 -16.02096,9.84436 -16.45419,36.81824z"/><path d="M45.36961,338.6267c-11.27763,1.50862 -11.27763,1.50862 -20.55506,33.08381c-9.27743,31.57519 -9.27743,31.57519 23.4156,31.57519c32.69302,0 32.69302,0 20.55506,-33.08381c-12.13797,-33.08381 -12.13797,-33.08381 -23.4156,-31.57519z"/></g></svg>