<?xml version="1.0" encoding="utf-8"?>
<!-- Generator: Adobe Illustrator 21.1.0, SVG Export Plug-In . SVG Version: 6.00 Build 0)  -->
<svg version="1.1" id="Layer_2" xmlns="http://www.w3.org/2000/svg" xmlns:xlink="http://www.w3.org/1999/xlink" x="0px" y="0px"
	 viewBox="0 0 24 24" style="enable-background:new 0 0 24 24;" xml:space="preserve">
<style type="text/css">
	.st0{fill:#FFFFFF;}
</style>
<path class="st0" d="M12,6C4,6,2,13,2,15s2,2,2,2s2.8,0,6,0c0-1.1,0.9-2,2-2c0.2,0,0.3,0,0.5,0.1l4.6-4.6c0.4-0.4,1-0.4,1.4,0
	c0.4,0.4,0.4,1,0,1.4l-4.6,4.6c0,0.2,0.1,0.3,0.1,0.5c2.8,0,5.2,0,6,0c2,0,2-2,2-2S21,6,12,6z M7,15H4v-2h3V15z M7.9,11.8L5.7,9.6
	l1.4-1.4l2.1,2.1L7.9,11.8z M13,10h-2V7h2V10z"/>
</svg>
