<?xml version="1.0" encoding="utf-8"?>
<!-- Generator: Adobe Illustrator 21.1.0, SVG Export Plug-In . SVG Version: 6.00 Build 0)  -->
<svg version="1.1" id="Layer_1" xmlns="http://www.w3.org/2000/svg" xmlns:xlink="http://www.w3.org/1999/xlink" x="0px" y="0px"
	 viewBox="0 0 24 24" style="enable-background:new 0 0 24 24;" xml:space="preserve">
<path id="Forma_1" d="M12.9,12.8c-0.3,0-0.5,0.2-0.6,0.5v1c0.1,0.3,0.3,0.5,0.6,0.5c0.5,0,0.8-0.4,0.8-0.9v-0.1
	C13.7,13.3,13.4,12.9,12.9,12.8L12.9,12.8z M7,13.3h0.8l-0.4-1.5L7,13.3z M4.8,2L3,4.6v16.1l0,0V22h14.3l0,0l0,0l2.6-2V2H4.8z
	 M8.5,16l-0.4-1.5H6.7L6.3,16H4.6l1.9-6h2l1.9,6H8.5L8.5,16z M14.6,15.5c-0.4,0.4-0.9,0.6-1.5,0.6c-0.4,0-0.8-0.1-1.2-0.4V16h-1.4
	V9.7h1.6v2.1c0.3-0.2,0.7-0.4,1.1-0.4c0.5,0,0.9,0.2,1.3,0.5c0.4,0.5,0.7,1.1,0.6,1.7C15.3,14.4,15.1,15,14.6,15.5L14.6,15.5z
	 M18.6,19.3l-1.2,0.9V4.6H4.8l0.8-1.1h13V19.3L18.6,19.3L18.6,19.3z"/>
</svg>
