<?xml version="1.0" encoding="utf-8"?>
<!-- Generator: Adobe Illustrator 21.1.0, SVG Export Plug-In . SVG Version: 6.00 Build 0)  -->
<svg version="1.1" id="Layer_1" xmlns="http://www.w3.org/2000/svg" xmlns:xlink="http://www.w3.org/1999/xlink" x="0px" y="0px"
	 viewBox="0 0 24 24" style="enable-background:new 0 0 24 24;" xml:space="preserve">
<style type="text/css">
	.st0{fill:#FFFFFF;}
</style>
<g id="Layer_1_1_">
	<g>
		<path class="st0" d="M10.6,15.1c0-0.5,0-1,0.1-1.4s0.2-0.8,0.3-1.2s0.3-0.7,0.6-1s0.5-0.6,0.8-0.9c0.3-0.2,0.5-0.5,0.7-0.7
			s0.4-0.4,0.6-0.7s0.3-0.5,0.4-0.7s0.1-0.5,0.1-0.8c0-0.7-0.2-1.2-0.5-1.5S13,5.8,12.4,5.8c-0.2,0-0.5,0-0.7,0.1S11.2,6.1,11,6.3
			s-0.3,0.4-0.4,0.6s-0.2,0.6-0.2,0.9H7C7,7,7.2,6.3,7.5,5.7s0.7-1.1,1.1-1.5s1-0.7,1.7-0.9S11.6,3,12.4,3c0.8,0,1.6,0.1,2.2,0.3
			s1.2,0.5,1.6,0.9s0.8,0.9,1,1.4s0.4,1.2,0.4,2c0,0.5-0.1,1-0.2,1.4s-0.4,0.8-0.6,1.2s-0.6,0.7-0.9,1.1s-0.7,0.7-1.1,1
			c-0.2,0.2-0.4,0.4-0.5,0.6s-0.3,0.4-0.4,0.6s-0.2,0.5-0.2,0.7s-0.1,0.5-0.1,0.8L10.6,15.1L10.6,15.1z M10.2,18.7
			c0-0.3,0-0.5,0.1-0.7s0.2-0.4,0.4-0.6s0.4-0.3,0.6-0.4s0.5-0.1,0.8-0.1s0.6,0,0.8,0.1s0.4,0.2,0.6,0.4s0.3,0.3,0.4,0.6
			s0.1,0.5,0.1,0.7c0,0.3,0,0.5-0.1,0.7s-0.2,0.4-0.4,0.6s-0.4,0.3-0.6,0.4s-0.5,0.1-0.8,0.1s-0.6,0-0.8-0.1s-0.4-0.2-0.6-0.4
			s-0.3-0.3-0.4-0.6S10.2,19,10.2,18.7z"/>
	</g>
</g>
<g id="Layer_2">
</g>
</svg>
