<?xml version="1.0" encoding="utf-8"?>
<!-- Generator: Adobe Illustrator 22.0.1, SVG Export Plug-In . SVG Version: 6.00 Build 0)  -->
<svg version="1.1" id="Layer_1" xmlns="http://www.w3.org/2000/svg" xmlns:xlink="http://www.w3.org/1999/xlink" x="0px" y="0px"
	 viewBox="0 0 24 24" style="enable-background:new 0 0 24 24;" xml:space="preserve">
<style type="text/css">
	.st0{fill:#EDC87E;}
</style>
<path id="HintON_copy" class="st0" d="M22.4,12.7h-2.2c-0.4,0-0.6-0.3-0.6-0.6c0-0.4,0.3-0.6,0.6-0.6h2.2c0.4,0,0.6,0.3,0.6,0.6
	S22.7,12.7,22.4,12.7z M18.2,6.7c-0.1,0.1-0.3,0.2-0.4,0.2c-0.2,0-0.3-0.1-0.5-0.2c-0.2-0.2-0.2-0.7,0-0.9l1.6-1.6
	C19.1,4,19.5,4,19.8,4.3c0.2,0.2,0.2,0.6,0,0.8L18.2,6.7z M16.1,16c-0.7,0.8-1.2,1.8-1.4,2.8c-0.1,0.5-0.5,0.8-0.9,0.8h-3.5
	c-0.5,0-0.9-0.3-0.9-0.8C9.2,17.7,8.7,16.7,8,16c-2.2-2.2-2.1-5.8,0.1-8s5.8-2.1,8,0.1C18.2,10.3,18.2,13.8,16.1,16L16.1,16z
	 M12,4.5c-0.4,0-0.6-0.3-0.6-0.6l0,0V1.6C11.4,1.3,11.6,1,12,1s0.6,0.3,0.6,0.6l0,0v2.2C12.6,4.2,12.4,4.5,12,4.5z M6.2,6.9
	C6,6.9,5.9,6.8,5.8,6.7L4.2,5.1c-0.3-0.2-0.3-0.6,0-0.9c0.2-0.2,0.6-0.3,0.9,0c0,0,0,0,0.1,0.1l1.6,1.6C7,6.2,7,6.6,6.8,6.8
	C6.6,6.8,6.4,6.9,6.2,6.9z M4.5,12c0,0.4-0.3,0.6-0.6,0.6l0,0H1.6C1.3,12.7,1,12.4,1,12s0.3-0.6,0.6-0.6h2.2
	C4.2,11.4,4.5,11.7,4.5,12L4.5,12L4.5,12z M5.8,17.4c0.2-0.2,0.6-0.3,0.9,0l0,0C7,17.6,7,18,6.7,18.3l-1.6,1.6
	c-0.2,0.2-0.7,0.2-0.9,0S4,19.2,4.2,19L5.8,17.4z M10,20.4h4c0.4,0,0.6,0.3,0.6,0.7v0.7c0,0.5-0.4,1-0.9,1.1l-0.2,0.6
	c-0.1,0.3-0.4,0.6-0.7,0.6h-1.6c-0.3,0-0.6-0.2-0.7-0.6l-0.2-0.6c-0.5-0.1-0.9-0.5-0.9-1.1v-0.7C9.4,20.7,9.7,20.5,10,20.4L10,20.4
	L10,20.4z M18.2,17.4l1.6,1.6c0.2,0.3,0.2,0.7,0,0.9c-0.2,0.2-0.6,0.2-0.9,0l-1.6-1.6C17,18,17,17.6,17.2,17.4S17.9,17.1,18.2,17.4
	C18.2,17.3,18.2,17.3,18.2,17.4L18.2,17.4z"/>
</svg>
