<?xml version="1.0" encoding="utf-8"?>
<!-- Generator: Adobe Illustrator 22.0.1, SVG Export Plug-In . SVG Version: 6.00 Build 0)  -->
<svg version="1.1" id="Layer_1" xmlns="http://www.w3.org/2000/svg" xmlns:xlink="http://www.w3.org/1999/xlink" x="0px" y="0px"
	 viewBox="0 0 24 24" style="enable-background:new 0 0 24 24;" xml:space="preserve">
<style type="text/css">
	.st0{fill:#FFFFFF;}
</style>
<path id="HintON" class="st0" d="M16.1,16c-0.7,0.8-1.2,1.8-1.4,2.8c-0.1,0.5-0.5,0.8-0.9,0.8h-3.5c-0.5,0-0.9-0.3-0.9-0.8
	C9.2,17.7,8.7,16.7,8,16c-2.2-2.2-2.1-5.8,0.1-8s5.8-2.1,8,0.1C18.2,10.3,18.2,13.8,16.1,16z M10,20.4h4c0.4,0,0.6,0.3,0.6,0.7v0.7
	c0,0.5-0.4,1-0.9,1.1l-0.2,0.6c-0.1,0.3-0.4,0.6-0.7,0.6h-1.6c-0.3,0-0.6-0.2-0.7-0.6l-0.2-0.6c-0.5-0.1-0.9-0.5-0.9-1.1v-0.7
	C9.4,20.7,9.7,20.4,10,20.4L10,20.4L10,20.4z"/>
</svg>
