<?xml version="1.0" encoding="utf-8"?>
<!-- Generator: Adobe Illustrator 21.1.0, SVG Export Plug-In . SVG Version: 6.00 Build 0)  -->
<svg version="1.1" id="Layer_1" xmlns="http://www.w3.org/2000/svg" xmlns:xlink="http://www.w3.org/1999/xlink" x="0px" y="0px"
	 viewBox="0 0 24 24" style="enable-background:new 0 0 24 24;" xml:space="preserve">
<style type="text/css">
	.st0{fill:#FFFFFF;}
</style>
<path id="Forma_1" class="st0" d="M22.7,11.4l-7.6-7.6c-0.4-0.3-0.9-0.3-1.3,0c-0.2,0.2-0.3,0.4-0.3,0.6v4H7.3
	C7,8.4,6.8,8.5,6.6,8.7C6.5,8.8,6.4,9.1,6.4,9.3v5.4c0,0.2,0.1,0.5,0.3,0.6c0.2,0.2,0.4,0.3,0.6,0.3h6.3v4c0,0.5,0.4,0.9,0.9,0.9
	c0.2,0,0.5-0.1,0.6-0.3l7.6-7.6C23.1,12.3,23.1,11.7,22.7,11.4L22.7,11.4z"/>
<path class="st0" d="M9,3c0,0,1,0,1,1S9,5,9,5H6c0,0-3,0-3,3s0,8,0,8s0,3,3,3s3,0,3,0s1,0,1,1s-1,1-1,1H5c0,0-4,0-4-4S1,7,1,7
	s0-4,5-4S9,3,9,3z"/>
</svg>
