<?xml version="1.0" encoding="utf-8"?>
<!-- Generator: Adobe Illustrator 22.0.1, SVG Export Plug-In . SVG Version: 6.00 Build 0)  -->
<svg version="1.1" id="Layer_1" xmlns="http://www.w3.org/2000/svg" xmlns:xlink="http://www.w3.org/1999/xlink" x="0px" y="0px"
	 viewBox="0 0 24 24" style="enable-background:new 0 0 24 24;" xml:space="preserve">
<path d="M20.5,13.5c0-5-4-9-9-9l0-3L7.6,5.4L7.5,5.5l4,4l0-3c3.9,0,7,3.1,7,7c0,3.9-3.1,7-7,7c-3.9,0-7-3.1-7-7
	c0-1.9,0.8-3.7,2.1-4.9L5.1,7.1C3.5,8.8,2.5,11,2.5,13.5c0,5,4,9,9,9C16.5,22.5,20.5,18.5,20.5,13.5z"/>
</svg>
