<?xml version="1.0" encoding="utf-8"?>
<!-- Generator: Adobe Illustrator 22.1.0, SVG Export Plug-In . SVG Version: 6.00 Build 0)  -->
<svg version="1.1" id="Layer_1" xmlns="http://www.w3.org/2000/svg" xmlns:xlink="http://www.w3.org/1999/xlink" x="0px" y="0px"
	 viewBox="0 0 111 111" style="enable-background:new 0 0 111 111;" xml:space="preserve">
<style type="text/css">
	.st0{fill:#949599;}
</style>
<path class="st0" d="M67.6,9l-0.7-8c-1.3,0.1-2.5,0.3-3.8,0.5h-0.6l0,0h-0.4c-3.1,0.7-6.1,2-8.8,3.7l0,0l0,0l4.2,6.8
	C60.6,10.2,64.1,9.2,67.6,9z"/>
<path class="st0" d="M33.6,44.7c0,0.4-0.2,2.3-0.4,4.7c-0.1,1.4-0.2,3.1-0.2,5l8,0.2c0.1-4.5,0.4-8.9,1.1-13.3l-7.9-1.2
	C34,41.4,33.8,42.9,33.6,44.7z"/>
<path class="st0" d="M34.9,36.1l7.8,1.6c0.8-4.1,2.1-8.1,3.8-12l-7.3-3.3l-0.1,0.2l0,0c-2,4.2-3.4,8.7-4.1,13.3L34.9,36.1z"/>
<path class="st0" d="M55.1,14l-5-6.2c-3.7,3.1-6.7,6.9-9,11.1l7,3.9C49.9,19.4,52.2,16.4,55.1,14z"/>
<path class="st0" d="M98,53.1l8-0.1c0-3.7-0.3-7.4-0.8-11.1l0,0c0,0,0-0.1,0-0.1l0,0l-0.1-0.4v-0.2l0,0c0,0,0,0,0-0.1l0,0
	c0,0,0,0,0-0.1l0,0v0v-0.2v-0.1c0,0,0,0,0-0.1l0,0c0,0,0,0,0-0.1l0,0c-0.1-0.6-0.2-1.2-0.3-1.7L96.9,40C97.6,44.3,98,48.7,98,53.1z"
	/>
<path class="st0" d="M90.6,21.8l6.8-4.1c-1.8-3-3.9-5.7-6.4-8.1l0,0l0,0l0,0l0,0l0,0l0,0l0,0l0,0l0,0l0,0l0,0l-0.1-0.1l0,0l0,0l0,0
	l0,0l0,0l0,0l0,0l0,0l0,0l0,0l0,0l0,0l0,0l-0.1-0.1l0,0l0,0l0,0l0,0l0,0l0,0l0,0l0,0l0,0l0,0l0,0l0,0l0,0l0,0l0,0l0,0l0,0l0,0l0,0
	l0,0l0,0l0,0l0,0l0,0l0,0l0,0l0,0l0,0l0,0l0,0l0,0l0,0l0,0l0,0c0,0-0.1-0.1-0.1-0.1l0,0l0,0l0,0l0,0l0,0l0,0l0,0l0,0l0,0l0,0l0,0
	L90.5,9l0,0l0,0l0,0l0,0c-0.3-0.3-0.7-0.5-1-0.8l-4.8,6.4C87,16.7,89,19.1,90.6,21.8z"/>
<path class="st0" d="M77.1,1.7L77.1,1.7c-1.9-0.5-3.8-0.7-5.7-0.8h-0.6l-0.2,8h0.2c3.5,0.1,6.8,1.1,9.8,2.8l4-7
	c-0.7-0.4-1.5-0.8-2.2-1.1l0,0C80.8,2.8,79,2.2,77.1,1.7L77.1,1.7"/>
<path class="st0" d="M96.2,36.5l7.8-1.7l-0.2-0.8l0,0c0,0,0,0,0-0.1l0,0v-0.2l0,0c0,0,0,0,0-0.1l0,0c0,0,0,0,0-0.1s0,0,0,0l0,0l0,0
	l0,0l0,0l0,0l0,0l0,0c0,0,0-0.1,0-0.1l0,0l0,0l0,0v-0.2l0,0l0,0l0,0c0,0,0-0.1,0-0.1l0,0l0,0l0,0v-0.2l0,0c-0.1-0.5-0.3-1-0.4-1.4
	l0,0c-0.1-0.3-0.2-0.6-0.3-1l0,0l-0.1-0.2l0,0c0,0,0-0.1,0-0.1l0,0l0,0l0,0v-0.1l0,0l0,0v-0.1l0,0l0,0l0,0c0,0,0,0,0-0.1l0,0l0,0
	l0,0l0,0c0,0,0,0,0,0l0,0l0,0v-0.1v-0.1l0,0l0,0l0,0c0,0,0,0,0-0.1l0,0c0,0,0,0,0-0.1l0,0v0l0,0c0,0,0,0,0-0.1l0,0c0,0,0,0,0,0l0,0
	c0,0,0,0,0-0.1l0,0v-0.1l0,0c0,0,0-0.1,0-0.1l0,0c0-0.1,0-0.1-0.1-0.2l0,0c-0.8-2.3-1.7-4.5-2.7-6.6l-7.2,3.5
	C94.5,29.3,95.5,32.9,96.2,36.5z"/>
<path class="st0" d="M83.1,97l5,6.3c3.7-3,6.9-6.7,9.3-10.9l-6.9-4.1C88.6,91.6,86.1,94.6,83.1,97z"/>
<path class="st0" d="M70.6,102l0.7,8c4.8-0.4,9.4-1.9,13.6-4.4l-4.2-6.8C77.6,100.6,74.1,101.7,70.6,102z"/>
<path class="st0" d="M92.1,85.3l7.2,3.5c2.1-4.3,3.7-8.9,4.7-13.6l-7.8-1.8C95.3,77.6,93.9,81.6,92.1,85.3z"/>
<path class="st0" d="M96.9,70l7.9,1.3c0.6-3.4,0.9-6.8,1.1-10.2l0,0c0,0,0-0.1,0-0.1V61c0,0,0-0.1,0-0.2l0,0v-0.1c0,0,0,0,0,0v-0.1
	c0,0,0-0.1,0-0.1l0,0c0-1.1,0.1-2.3,0.1-3.4l-8-0.1C97.9,61.4,97.6,65.7,96.9,70z"/>
<path class="st0" d="M48.5,89.5l-6.8,4.2c2.5,4.1,5.8,7.7,9.7,10.5l4.6-6.5C53,95.6,50.5,92.8,48.5,89.5z"/>
<path class="st0" d="M42.9,74.9l-7.8,1.7c0.2,0.9,0.4,1.9,0.7,2.8l0,0l0,0l0,0c0,0,0,0.1,0,0.1l0,0l0,0v0.1l0,0l0,0l0,0
	c0,0,0,0,0,0.1l0,0l0,0l0,0V80c0,0,0,0,0,0.1l0,0c0,0,0,0,0,0.1l0,0l0,0l0,0l0,0l0,0v0.1l0,0l0,0l0,0l0,0l0,0l0.1,0.2l0,0
	c0.3,1,0.6,2,0.9,3l0,0l0,0l0,0l0,0v0.1l0,0l0,0l0,0l0,0l0,0l0,0l0,0l0,0l0,0l0,0l0,0l0,0l0,0l0,0l0,0l0,0l0,0c0,0,0,0,0,0.1l0,0
	l0,0l0,0l0,0l0,0l0,0l0,0l0,0l0,0l0,0v0.1l0,0c0,0,0,0.1,0,0.1l0,0l0,0l0,0l0,0l0,0c0,0.1,0,0.1,0.1,0.2l0,0l0,0l0,0l0,0l0,0
	c0.6,1.7,1.4,3.4,2.2,5l7.2-3.6C44.7,82,43.6,78.5,42.9,74.9z"/>
<path class="st0" d="M41,58.2l-8,0.2c0,0.6,0,1.2,0,1.8l0,0c0,0,0,0.1,0,0.1v0.1l0,0v0.2c0,0,0,0.1,0,0.1v0.2c0,0,0,0,0,0.1V61l0,0
	v0.1c0,0,0,0.1,0,0.1v0.1c0,0,0,0.1,0,0.1v0.3c0,0,0,0.1,0,0.1V62c0,0,0,0.1,0,0.1l0,0c0,0,0,0.1,0,0.1l0,0v0.1l0,0c0,0,0,0.1,0,0.1
	l0,0c0,0,0,0.1,0,0.1l0,0c0,0,0,0.1,0,0.1v0.1l0,0c0,0,0,0.1,0,0.1V63c0,0,0,0.1,0,0.1v0.1l0,0v0.1c0,0,0,0,0,0.1l0,0c0,0,0,0,0,0.1
	l0,0c0,0,0,0.1,0,0.1v0.1l0,0V64c0,0,0,0,0,0.1l0,0c0,0,0,0.1,0,0.1l0,0c0,0,0,0.1,0,0.1v0.2c0,0.1,0,0.1,0,0.2l0,0v0.1l0,0
	c0.2,2.8,0.6,5.5,1,8l7.9-1.3C41.3,67,41,62.6,41,58.2z"/>
<path class="st0" d="M58.6,99.4l-3.8,7c0.8,0.5,1.7,0.9,2.5,1.2l0,0l0,0l0,0h0.1l0,0l0,0l0,0h0.1h0.1c3.2,1.4,6.7,2.2,10.3,2.3h0.6
	v-8H68C64.7,101.8,61.5,100.9,58.6,99.4z"/>
<path class="st0" d="M7,1h8v19.2H7V1 M7,24.2h8v19.2H7V24.2 M7,47.4h8v19.2H7V47.4 M7,70.6h8v19.2H7V70.6 M7,93.8h8V110H7V93.8"/>
</svg>
