<?xml version="1.0" encoding="utf-8"?>
<!-- Generator: Adobe Illustrator 22.0.1, SVG Export Plug-In . SVG Version: 6.00 Build 0)  -->
<svg version="1.0" id="Layer_1" xmlns="http://www.w3.org/2000/svg" xmlns:xlink="http://www.w3.org/1999/xlink" x="0px" y="0px"
	 viewBox="0 0 40 40" style="enable-background:new 0 0 40 40;" xml:space="preserve">
<style type="text/css">
	.st0{fill:#FFFFFF;}
</style>
<path id="Shape_5_copy_2" class="st0" d="M13.5,13l6,6c0.6,0.4,0.7,1.1,0.3,1.7c-0.1,0.1-0.2,0.2-0.3,0.3l-6,6h-0.1
	c-1.1,1-1.2,2.7-0.2,3.8c0.1,0.1,0.1,0.1,0.2,0.2c1.9,2.1,4.1,0,4.1,0v0c0,0,7-6.7,9.1-9s0-4,0-4l-9.1-9c0,0-2.2-2.1-4,0
	c-1.1,1-1.2,2.7-0.2,3.8C13.4,12.8,13.5,12.9,13.5,13z"/>
</svg>
