<?xml version="1.0" encoding="utf-8"?>
<!-- Generator: Adobe Illustrator 22.0.1, SVG Export Plug-In . SVG Version: 6.00 Build 0)  -->
<svg version="1.0" id="Layer_1" xmlns="http://www.w3.org/2000/svg" xmlns:xlink="http://www.w3.org/1999/xlink" x="0px" y="0px"
	 viewBox="0 0 40 40" style="enable-background:new 0 0 40 40;" xml:space="preserve">
<style type="text/css">
	.st0{fill:#FFFFFF;}
</style>
<path id="Shape_5_copy" class="st0" d="M26.4,13l-6,6c-0.6,0.4-0.7,1.1-0.3,1.7c0.1,0.1,0.2,0.2,0.3,0.3l6,6h0.1
	c1.1,1,1.2,2.7,0.2,3.8c-0.1,0.1-0.1,0.1-0.2,0.2c-1.9,2.1-4.1,0-4.1,0V31c0,0-7-6.7-9-9s0-4,0-4l9-9c0,0,2.2-2.1,4,0
	c1.1,1,1.2,2.7,0.2,3.8C26.6,12.9,26.5,12.9,26.4,13z"/>
</svg>
