<?xml version="1.0" encoding="utf-8"?>
<!-- Generator: Adobe Illustrator 22.0.1, SVG Export Plug-In . SVG Version: 6.00 Build 0)  -->
<svg version="1.0" id="Layer_1" xmlns="http://www.w3.org/2000/svg" xmlns:xlink="http://www.w3.org/1999/xlink" x="0px" y="0px"
	 viewBox="0 0 40 40" style="enable-background:new 0 0 40 40;" xml:space="preserve">
<style type="text/css">
	.st0{fill:#012A55;}
</style>
<g>
	<path class="st0" d="M7.4,21.3h5.2v-1.6H7.4V21.3z M13.9,21.3h12.2v-1.6H13.9V21.3z M27.7,21.3h4.9v-1.6h-4.9V21.3z M21.2,25.4
		h11.4v-1.6H21.2V25.4z M7.4,25.4h12.2v-1.6H7.4L7.4,25.4z"/>
	<path class="st0" d="M5.3,9.1v18.7c0,0.2,0.2,0.4,0.4,0.4h3.7l2.7,3c0.1,0.1,0.3,0.1,0.4,0l2.7-3h19c0.2,0,0.4-0.2,0.4-0.4
		c0,0,0,0,0,0V9.1c0-0.2-0.2-0.4-0.4-0.4c0,0,0,0,0,0H5.8C5.5,8.7,5.3,8.9,5.3,9.1C5.3,9.1,5.3,9.1,5.3,9.1z M5.8,30.7
		c-1.6,0-2.9-1.3-2.9-2.9V9.1c0-1.6,1.3-2.9,2.8-2.9c0,0,0,0,0,0h28.5c1.6,0,2.9,1.3,2.8,2.9c0,0,0,0,0,0v18.7
		c0,1.6-1.3,2.9-2.8,2.9c0,0,0,0,0,0H16.3l-2,2.2c-1,1.1-2.7,1.2-3.8,0.2c-0.1-0.1-0.1-0.1-0.2-0.2l-2-2.2
		C8.3,30.7,5.8,30.7,5.8,30.7z"/>
</g>
</svg>
