
<svg xmlns="http://www.w3.org/2000/svg" version="1.1" xmlns:xlink="http://www.w3.org/1999/xlink" preserveAspectRatio="none" x="0px" y="0px" width="27px" height="22px" viewBox="0 0 27 22">
<defs>
<g id="Layer0_0_FILL">
<path fill="#1E8508" stroke="none" d="
M 26.65 2.9
Q 26.6 1.7 25.75 0.85 24.85 0 23.65 0 22.4 0.05 21.55 0.95
L 8.4 14.75 5.2 10.9
Q 4.6 9.8 3.4 9.5 2.2 9.15 1.15 9.8 0.1 10.4 -0.25 11.6 -0.55 12.8 0 13.9
L 5.9 21.1
Q 6.7 22 7.9 22.1 9.1 22.2 10.1 21.5
L 25.8 5
Q 26.65 4.15 26.65 2.9 Z"/>
</g>
</defs>

<g transform="matrix( 0.9925994873046875, 0, 0, 0.9886932373046875, 0.45,0.1) ">
<use xlink:href="#Layer0_0_FILL"/>
</g>
</svg>
