<svg id="Layer_1" data-name="Layer 1" xmlns="http://www.w3.org/2000/svg" viewBox="0 0 22 22"><defs><style>.cls-1{fill:#1e8508;}</style></defs><title>fit-to-screen</title><path class="cls-1" d="M4.25,6.79,3.11,7.87c-.76.75-.57,1.6.44,1.83H8.38c.8,0,1.34-.27,1.31-1.33V3.54c-.2-1-.9-1.19-1.55-.44L6.87,4.32,2.81.26a.9.9,0,0,0-1.27,0L.26,1.54a.9.9,0,0,0,0,1.27Zm-2.72,15a.9.9,0,0,0,1.27,0l4.05-4,1.28,1.21c.64.76,1.34.56,1.54-.43V13.65c0-1.05-.51-1.29-1.31-1.32H3.53c-1,.24-1.19,1.08-.43,1.82l1.13,1.08-4,4a.9.9,0,0,0,0,1.27ZM20.47.26a.91.91,0,0,0-1.28,0l-4,4.06L13.87,3.1c-.64-.76-1.34-.56-1.54.44V8.37c0,1.06.51,1.3,1.31,1.33h4.83c1-.23,1.19-1.08.43-1.83L17.76,6.79l4-4a.9.9,0,0,0,0-1.27ZM13.9,18.91l1.27-1.21,4,4a.89.89,0,0,0,1.27,0l1.27-1.27a.9.9,0,0,0,0-1.27l-4-4,1.13-1.08c.76-.75.57-1.59-.43-1.82H13.67c-.8,0-1.33.27-1.31,1.32v4.83C12.56,19.47,13.25,19.66,13.9,18.91Z" transform="translate(0 0)"/></svg>