<svg id="Layer_1" data-name="Layer 1" xmlns="http://www.w3.org/2000/svg" viewBox="0 0 22 22"><defs><style>.cls-1{fill:#1e8508;}</style></defs><title>fullscreen</title><path class="cls-1" d="M5.45,2.91,6.59,1.83C7.35,1.08,7.16.24,6.15,0H1.32C.52,0,0,.27,0,1.33V6.17c.2,1,.9,1.19,1.55.43L2.83,5.39,6.89,9.44a.9.9,0,0,0,1.27,0L9.44,8.17a.91.91,0,0,0,0-1.28Zm2.69,9.68a.9.9,0,0,0-1.27,0l-4,4L1.55,15.42C.9,14.66.2,14.86,0,15.85v4.83C0,21.73.52,22,1.32,22H6.14c1-.24,1.2-1.08.44-1.82L5.44,19.1l4-4a.9.9,0,0,0,0-1.27Zm5.72-3.15a.9.9,0,0,0,1.27,0l4-4L20.46,6.6c.64.76,1.34.56,1.54-.43V1.33C22,.27,21.48,0,20.68,0H15.86c-1,.24-1.19,1.08-.43,1.83l1.13,1.08-4,4a.91.91,0,0,0,0,1.28Zm6.6,6-1.28,1.21-4-4a.9.9,0,0,0-1.27,0l-1.26,1.27a.9.9,0,0,0,0,1.27l4,4-1.14,1.07c-.75.75-.56,1.59.44,1.83h4.81c.8,0,1.33-.27,1.3-1.33V15.85C21.8,14.86,21.1,14.66,20.46,15.42Z"/></svg>