
<svg xmlns="http://www.w3.org/2000/svg" version="1.1" xmlns:xlink="http://www.w3.org/1999/xlink" preserveAspectRatio="none" x="0px" y="0px" width="31px" height="31px" viewBox="0 0 31 31">
<defs>
<g id="Layer0_0_FILL">
<path fill="#1E8508" stroke="none" d="
M 29.45 18.25
L 29.45 18.1
Q 29.45 17.5 28.85 17.5
L 25.1 17.5
Q 24.6 17.5 24.5 17.95
L 23.5 20.25
Q 22.1 22.45 19.85 23.75 17.6 25 15 25 13.15 25 11.3 24.3 9.5 23.55 8.15 22.3
L 10.85 19.6
Q 11.25 19.3 11.25 18.75 11.25 18.25 10.85 17.85 10.55 17.5 10 17.5
L 1.25 17.5
Q 0.75 17.5 0.35 17.85 0 18.25 0 18.75
L 0 27.5
Q 0 28 0.35 28.35
L 0.35 28.4
Q 0.75 28.75 1.25 28.75 1.75 28.7 2.1 28.35
L 4.6 25.85
Q 6.65 27.8 9.35 28.9 11.8 29.95 14.9 29.95 20.25 30.05 24.2 26.7 28.3 23.35 29.45 18.25
M 29.55 1.65
Q 29.25 1.25 28.7 1.25 28.15 1.25 27.85 1.65
L 25.3 4.15
Q 23.1 2.1 20.5 1.1 17.95 0 15 0 9.7 -0.1 5.6 3.25 1.5 6.55 0.35 11.75
L 0.35 11.9
Q 0.35 12.5 1 12.5
L 4.9 12.5
Q 5.3 12.5 5.5 12.05 5.8 11.05 6.5 9.75 7.85 7.55 10.1 6.25 12.4 5 15 5 18.85 4.9 21.8 7.7
L 19.1 10.35
Q 18.7 10.75 18.75 11.25 18.7 11.75 19.1 12.1 19.5 12.5 20 12.5
L 28.75 12.5
Q 29.25 12.5 29.6 12.15 29.95 11.8 30 11.25
L 30 2.5
Q 29.9 1.95 29.55 1.65 Z"/>
</g>
</defs>

<g transform="matrix( 1, 0, 0, 1, 0.5,0.5) ">
<use xlink:href="#Layer0_0_FILL"/>
</g>
</svg>
