
<svg xmlns="http://www.w3.org/2000/svg" version="1.1" xmlns:xlink="http://www.w3.org/1999/xlink" preserveAspectRatio="none" x="0px" y="0px" width="25px" height="24px" viewBox="0 0 25 24">
<defs>
<g id="Layer0_0_FILL">
<path fill="#1E8508" stroke="none" d="
M 23.95 4.15
L 24 4.05
Q 24.4 3.5 24.3 2.8 24.15 2.05 23.6 1.65 23 1.25 22.3 1.35 21.6 1.5 21.15 2.05
L 14.25 11.3 11 7.65
Q 10.5 7.15 9.8 7.1 9.1 7.1 8.55 7.6 8.05 8.05 8 8.75 7.95 9.5 8.45 10
L 13.35 15.5
Q 13.9 15.9 14.65 15.8 15.35 15.7 15.75 15.15
L 23.95 4.15
M 22.65 23.75
Q 23.35 23.75 23.9 23.25 24.4 22.75 24.4 22.05
L 24.4 14.8
Q 24.25 13.35 22.8 13.2 22.1 13.15 21.55 13.65 21 14.1 20.9 14.8
L 20.9 20.35 3.4 20.35 3.4 3.4 14.7 3.4
Q 15.4 3.4 15.9 2.9 16.4 2.4 16.4 1.7 16.4 1 15.9 0.5 15.4 0 14.7 0
L 1.7 0
Q 1 0 0.5 0.5 0 1 0 1.7
L 0 22.05
Q 0 22.75 0.45 23.25 0.95 23.75 1.65 23.75
L 22.65 23.75 Z"/>
</g>
</defs>

<g transform="matrix( 1, 0, 0, 1, 0.3,0.15) ">
<use xlink:href="#Layer0_0_FILL"/>
</g>
</svg>
