
<svg xmlns="http://www.w3.org/2000/svg" version="1.1" xmlns:xlink="http://www.w3.org/1999/xlink" preserveAspectRatio="none" x="0px" y="0px" width="31px" height="31px" viewBox="0 0 31 31">
<defs>
<g id="Layer0_0_MEMBER_0_MEMBER_0_MEMBER_0_FILL">
<path fill="#1E8508" stroke="none" d="
M 20.8 7.1
Q 20.95 2.95 20.8 2.05 20.65 0.65 19.9 0.65 18.5 0.65 15.35 3.05 12.15 5.6 9.4 8.5 2.1 8.1 1.25 9.1 0.35 10.1 0.5 15.95 0.6 21.55 1.25 22.05 3.05 22.75 5.1 22.75
L 20.8 7.1 Z"/>
</g>

<g id="Layer0_1_MEMBER_0_MEMBER_0_MEMBER_0_FILL">
<path fill="#1E8508" stroke="none" d="
M 20.9 27.65
Q 20.65 22.6 20.65 15.5
L 20.75 10 7.85 22.9 10.05 22.9
Q 13.2 26.05 15.9 28.25 18.95 30.65 20.05 30.65 21.05 30.65 20.9 27.65 Z"/>
</g>

<g id="Layer0_2_MEMBER_0_MEMBER_0_MEMBER_0_FILL">
<path fill="#1E8508" stroke="none" d="
M 24.4 7.85
Q 24.4 8.2 24.8 8.6 27.85 11.2 28.15 15.35 28.55 19.3 25.8 22.5
L 24.8 23.55
Q 24.4 23.85 24.4 24.3 24.4 24.85 24.65 25.15 25.1 25.5 25.4 25.5 25.8 25.5 26.15 25.25 29.95 21.9 30.4 16.9 30.7 11.85 27.4 8.1 26.9 7.45 26.15 6.95 25.85 6.65 25.4 6.7 25.05 6.7 24.65 7 24.4 7.3 24.4 7.85 Z"/>
</g>

<g id="Layer0_3_MEMBER_0_MEMBER_0_MEMBER_0_FILL">
<path fill="#1E8508" stroke="none" d="
M 23.05 9.5
Q 22.75 9.9 22.75 10.35 22.75 10.85 23.05 11.15 24.8 13.05 24.8 15.65 24.8 18.25 23.05 20.15 22.75 20.45 22.75 20.9 22.75 21.4 23.05 21.75 23.3 22.05 23.8 22.05 24.25 22.05 24.55 21.75 27 19.05 27 15.65 27 12.2 24.55 9.5 24.15 9.2 23.8 9.2 23.35 9.2 23.05 9.5 Z"/>
</g>

<g id="Layer0_4_MEMBER_0_FILL">
<path fill="#1E8508" stroke="none" d="
M 29.55 0.5
Q 29.140625 0.5041015625 28.85 0.8
L 0.6 29.05
Q 0.3037109375 29.34140625 0.3 29.75 0.303515625 30.1599609375 0.6 30.45 0.890625 30.746875 1.3 30.75 1.709375 30.7458984375 2 30.45
L 30.25 2.2
Q 30.5462890625 1.90859375 30.55 1.5 30.546484375 1.0900390625 30.25 0.8 29.959375 0.503125 29.55 0.5 Z"/>
</g>
</defs>

<g transform="matrix( 1, 0, 0, 1, 0,0) ">
<use xlink:href="#Layer0_0_MEMBER_0_MEMBER_0_MEMBER_0_FILL"/>
</g>

<g transform="matrix( 1, 0, 0, 1, 0,0) ">
<use xlink:href="#Layer0_1_MEMBER_0_MEMBER_0_MEMBER_0_FILL"/>
</g>

<g transform="matrix( 1, 0, 0, 1, 0,0) ">
<use xlink:href="#Layer0_2_MEMBER_0_MEMBER_0_MEMBER_0_FILL"/>
</g>

<g transform="matrix( 1, 0, 0, 1, 0,0) ">
<use xlink:href="#Layer0_3_MEMBER_0_MEMBER_0_MEMBER_0_FILL"/>
</g>

<g transform="matrix( 1, 0, 0, 1, 0,0) ">
<use xlink:href="#Layer0_4_MEMBER_0_FILL"/>
</g>
</svg>
