
<svg xmlns="http://www.w3.org/2000/svg" version="1.1" xmlns:xlink="http://www.w3.org/1999/xlink" preserveAspectRatio="none" x="0px" y="0px" width="28px" height="22px" viewBox="0 0 28 22">
<defs>
<g id="Layer0_0_FILL">
<path fill="#1E8508" stroke="none" d="
M 26.9 11.55
Q 27.35 11.2 27.35 10.7 27.35 10.1 26.9 9.8
L 13.2 0.2
Q 12.85 0 12.4 0.05 11.95 0.15 11.7 0.5 11.45 0.85 11.5 1.3
L 12.35 5.95 1.15 4.7
Q 0.7 4.65 0.35 4.95 0.05 5.25 0 5.7
L 0 15.7
Q 0.05 16.1 0.35 16.4 0.7 16.7 1.15 16.7
L 12.35 15.4 11.5 20.05
Q 11.45 20.45 11.7 20.9 12.35 21.65 13.2 21.15
L 26.9 11.55 Z"/>
</g>
</defs>

<g transform="matrix( 1, 0, 0, 1, 0.45,0.3) ">
<use xlink:href="#Layer0_0_FILL"/>
</g>
</svg>
