
<svg xmlns="http://www.w3.org/2000/svg" version="1.1" xmlns:xlink="http://www.w3.org/1999/xlink" preserveAspectRatio="none" x="0px" y="0px" width="21px" height="29px" viewBox="0 0 21 29">
<defs>
<g id="Layer0_0_FILL">
<path fill="#1E8508" stroke="none" d="
M 8.45 2.5
Q 8.85 2.05 8.8 1.45 8.75 0.8 8.3 0.4 7.8 0 7.2 0.05 6.55 0.1 6.15 0.55
L 0.35 7.4
Q -0.35 8.35 0.35 9.3
L 6.15 16.55
Q 6.6 17.1 7.35 17.1 7.9 17.1 8.25 16.8 8.75 16.4 8.8 15.8 8.9 15.2 8.5 14.7
L 4.6 9.85 9.6 9.85
Q 12.8 9.85 15.05 12 17.5 14.35 17.5 18.25 17.75 21.6 15.45 24.1 13.1 26.25 9.95 26 7.35 25.95 4.8 23.8 2.75 21.65 2.7 21.6 2.35 21.1 1.75 20.95 1.2 20.8 0.65 21.15 0.15 21.5 0.05 22.1 -0.1 22.7 0.2 23.2
L 0.25 23.3
Q 0.35 23.4 3 26.2 6.3 28.95 9.95 29
L 10.15 29
Q 14.5 29.1 17.55 26.25 20.8 22.85 20.55 18.25 20.75 13.7 17.65 10.4 14.6 7.05 10.1 6.85
L 4.75 6.85 8.45 2.5 Z"/>
</g>
</defs>

<g transform="matrix( 1, 0, 0, 1, 0.3,0) ">
<use xlink:href="#Layer0_0_FILL"/>
</g>
</svg>
