
<svg xmlns="http://www.w3.org/2000/svg" version="1.1" xmlns:xlink="http://www.w3.org/1999/xlink" preserveAspectRatio="none" x="0px" y="0px" width="18px" height="32px" viewBox="0 0 18 32">
<defs>
<g id="Layer0_0_FILL">
<path fill="#1E8508" stroke="none" d="
M 15.45 12.2
Q 16 11.5 16.55 10.35 17 9.3 17 8.05 17.05 6.35 16.35 4.6 15.75 3.3 14.5 2.25 13.3 1.35 11.75 0.95 10.2 0.5 8.4 0.5 6 0.5 4.1 1.6 2.15 2.7 0.65 4.5
L 4.55 8.25
Q 5.2 7.6 6.1 6.95 7 6.4 7.95 6.45 8.75 6.4 9.55 6.9 10.35 7.6 10.25 8.55 10.25 9.4 9.8 9.9
L 7.45 12.85
Q 6.85 13.5 6.15 14.65 5.55 15.75 5.35 16.75 5 18.05 5.2 19.3
L 11.4 19.3
Q 11.25 18.25 11.65 17.2 11.95 16.4 12.65 15.45
L 14.05 13.85
Q 14.7 13.2 15.45 12.2
M 8.35 21.35
Q 6.55 21.25 5.35 22.65 4.1 24 4.1 25.8
L 4.15 25.8
Q 4.15 27.65 5.35 29 6.5 30.3 8.35 30.3 10.2 30.3 11.35 29 12.5 27.6 12.5 25.85 12.5 24.05 11.35 22.65 10.05 21.3 8.35 21.35 Z"/>
</g>

<path id="Layer0_0_1_STROKES" stroke="#FFFFFF" stroke-width="1" stroke-linejoin="miter" stroke-linecap="butt" stroke-miterlimit="4" fill="none" d="
M 5.2 19.3
Q 5 18.05 5.35 16.75 5.55 15.75 6.15 14.65 6.85 13.5 7.45 12.85
L 9.8 9.9
Q 10.25 9.4 10.25 8.55 10.35 7.6 9.55 6.9 8.75 6.4 7.95 6.45 7 6.4 6.1 6.95 5.2 7.6 4.55 8.25
L 0.65 4.5
Q 2.15 2.7 4.1 1.6 6 0.5 8.4 0.5 10.2 0.5 11.75 0.95 13.3 1.35 14.5 2.25 15.75 3.3 16.35 4.6 17.05 6.35 17 8.05 17 9.3 16.55 10.35 16 11.5 15.45 12.2 14.7 13.2 14.05 13.85
L 12.65 15.45
Q 11.95 16.4 11.65 17.2 11.25 18.25 11.4 19.3
L 5.2 19.3 Z
M 4.1 25.8
Q 4.1 24 5.35 22.65 6.55 21.25 8.35 21.35 10.05 21.3 11.35 22.65 12.5 24.05 12.5 25.85 12.5 27.6 11.35 29 10.2 30.3 8.35 30.3 6.5 30.3 5.35 29 4.15 27.65 4.15 25.8
L 4.1 25.8 Z"/>
</defs>

<g transform="matrix( 1, 0, 0, 1, 0.35,0.5) ">
<use xlink:href="#Layer0_0_FILL"/>

<use xlink:href="#Layer0_0_1_STROKES"/>
</g>
</svg>
