
<svg xmlns="http://www.w3.org/2000/svg" version="1.1" xmlns:xlink="http://www.w3.org/1999/xlink" preserveAspectRatio="none" x="0px" y="0px" width="31px" height="31px" viewBox="0 0 31 31">
<defs>
<g id="Layer0_0_FILL">
<path fill="#1E8508" stroke="none" d="
M 20.35 14.85
Q 20.35 9.1 20.6 3.1 20.6 0 19.55 0 18.2 0 14.95 2.45 12 4.75 9 7.9 1.65 7.45 0.8 8.45 -0.15 9.5 0.05 15.35 0.2 20.95 0.8 21.45 1.3 21.85 4.15 22.1 6.95 22.3 9.65 22.15 12.6 25.2 15.6 27.6 18.65 30 19.7 30 20.75 30 20.65 26.95 20.35 20.9 20.35 14.85
M 24.05 6.9
Q 24.05 7.35 24.4 7.65 27.6 10.45 27.85 14.7 28.05 18.95 25.25 22.15
L 24.4 23
Q 24.05 23.3 24.05 23.75 24 24.2 24.3 24.55 24.95 25.35 25.7 24.75
L 25.8 24.7
Q 29.9 20.95 30 15.4
L 30 15.35
Q 29.9 9.75 25.8 6 25.5 5.75 25.05 5.75 24.6 5.75 24.3 6.1 24 6.45 24.05 6.9
M 22.6 9.35
Q 21.9 10.15 22.6 10.9 24.4 12.8 24.4 15.4 24.4 18 22.6 19.85 22.3 20.2 22.3 20.65 22.3 21.1 22.6 21.4 22.9 21.75 23.35 21.75 23.8 21.75 24.1 21.45
L 24.1 21.4
Q 26.55 18.9 26.55 15.4 26.55 11.85 24.1 9.35 23.8 9.05 23.35 9.05 22.95 9.05 22.6 9.35 Z"/>
</g>
</defs>

<g transform="matrix( 1, 0, 0, 1, 0.45,0.6) ">
<use xlink:href="#Layer0_0_FILL"/>
</g>
</svg>
