<?xml version="1.0" encoding="utf-8"?>
<!-- Generator: Adobe Illustrator 22.0.1, SVG Export Plug-In . SVG Version: 6.00 Build 0)  -->
<svg version="1.0" id="Layer_1" xmlns="http://www.w3.org/2000/svg" xmlns:xlink="http://www.w3.org/1999/xlink" x="0px" y="0px"
	 viewBox="0 0 40 40" style="enable-background:new 0 0 40 40;" xml:space="preserve">
<style type="text/css">
	.st0{fill:#012A55;stroke:#012A55;}
</style>
<g>
	<path class="st0" d="M34.1,7.3c-0.6-0.1-1.2,0.2-1.3,0.8L32,11.8c-2.5-4.3-7.2-7-12.2-7C12.1,4.8,5.7,11.2,5.7,19
		c0,0.6,0.5,1.1,1.1,1.1c0.6,0,1.1-0.5,1.1-1.1c0-6.6,5.4-12,12-12c4.3,0,8.2,2.3,10.3,5.9l-3.6-0.8C26,12,25.4,12.4,25.2,13
		c-0.1,0.6,0.2,1.2,0.8,1.3c0,0,0,0,0.1,0l6.2,1.3c0.6,0.1,1.2-0.2,1.3-0.8c0,0,0,0,0,0l1.3-6.2C35.1,8,34.7,7.4,34.1,7.3L34.1,7.3z
		 M33,19.5c-0.6,0-1.1,0.5-1,1.1c0.1,3.2-1,6.3-3.2,8.6C26.5,31.6,23.3,33,20,33c-4.2,0-8-2.2-10.2-5.7l3.8,1
		c0.6,0.2,1.2-0.2,1.3-0.8c0.2-0.6-0.2-1.2-0.8-1.3L8,24.6c-0.6-0.2-1.2,0.2-1.3,0.8l-1.6,6.1c-0.2,0.6,0.2,1.2,0.8,1.3
		s1.2-0.2,1.3-0.8l0.9-3.5c2.7,4.2,7.4,6.7,12.4,6.5c3.7-0.1,7.3-1.7,9.8-4.5c2.6-2.7,3.9-6.4,3.8-10.1C34.1,20,33.6,19.5,33,19.5
		C33,19.5,33,19.5,33,19.5z"/>
</g>
</svg>
