<?xml version="1.0" encoding="utf-8"?>
<!-- Generator: Adobe Illustrator 22.0.1, SVG Export Plug-In . SVG Version: 6.00 Build 0)  -->
<svg version="1.1" id="Layer_1" xmlns="http://www.w3.org/2000/svg" xmlns:xlink="http://www.w3.org/1999/xlink" x="0px" y="0px"
	 viewBox="0 0 40 40" style="enable-background:new 0 0 40 40;" xml:space="preserve">
<style type="text/css">
	.st0{fill:#1E304C;}
</style>
<g>
	<path class="st0" d="M26.7,15.7l-3.3-3.3c-0.3-0.3-0.7-0.5-1.2-0.5c-0.5,0-0.9,0.2-1.3,0.5l-5.7,5.7c-0.1,0.1-0.2,0.2-0.3,0.3
		L3.5,30c-0.4,0.4-0.4,1,0,1.4l4.3,4.3c0.4,0.4,1,0.4,1.4,0l12.3-12.3c0.1-0.1,0.1-0.1,0.2-0.2l5-5C27.4,17.5,27.4,16.4,26.7,15.7z
		 M25.6,17.1l-4.5,4.5L17.6,18l4.5-4.5c0,0,0.1-0.1,0.2-0.1c0,0,0,0,0,0c0.1,0,0.1,0,0.2,0.1l3.3,3.3C25.8,16.9,25.8,17,25.6,17.1z"
		/>
	<path class="st0" d="M26.4,9.4l1.9,0.5c0.5,0.1,1.1,0.7,1.2,1.2l0.4,1.8c0.3,1.1,0.7,1.1,0.9,0c0.1-0.1,0.5-1.9,0.5-1.9
		c0.1-0.5,0.7-1.1,1.2-1.2l1.8-0.4c1.1-0.3,1.1-0.7,0-0.9l-1.8-0.4C32,8,31.4,7.4,31.3,6.9L30.8,5c-0.3-1.1-0.7-1.1-0.9,0l-0.4,1.9
		c-0.1,0.5-0.7,1.1-1.2,1.2l-1.9,0.4C25.3,8.7,25.3,9.2,26.4,9.4z"/>
	<path class="st0" d="M35.9,23l-1.8-0.4c-0.5-0.1-1.1-0.7-1.2-1.2l-0.5-1.9c-0.3-1.1-0.7-1.1-0.9,0l-0.4,1.9
		c-0.1,0.5-0.7,1.1-1.2,1.2L28,22.9c-1.1,0.2-1.1,0.7,0,0.9l1.9,0.5c0.5,0.1,1.1,0.7,1.2,1.2l0.4,1.8c0.3,1.1,0.7,1.1,0.9,0
		c0.1,0,0.5-1.8,0.5-1.8c0.1-0.5,0.7-1.1,1.2-1.2l1.8-0.4C37,23.6,37,23.2,35.9,23z"/>
	<path class="st0" d="M7,10.9l1.9,0.5c0.5,0.1,1.1,0.7,1.2,1.2l0.4,1.8c0.3,1.1,0.7,1.1,0.9,0c0.1,0,0.5-1.8,0.5-1.8
		c0.1-0.5,0.7-1.1,1.2-1.2l1.8-0.4c1.1-0.3,1.1-0.7,0-0.9l-1.8-0.4C12.6,9.6,12,9,11.9,8.5l-0.5-1.9c-0.3-1.1-0.7-1.1-0.9,0
		l-0.4,1.9C10,8.9,9.4,9.4,8.9,9.6L7,10C6,10.2,6,10.6,7,10.9z"/>
</g>
</svg>
