<?xml version="1.0" encoding="utf-8"?>
<!-- Generator: Adobe Illustrator 22.0.1, SVG Export Plug-In . SVG Version: 6.00 Build 0)  -->
<svg version="1.0" id="Layer_1" xmlns="http://www.w3.org/2000/svg" xmlns:xlink="http://www.w3.org/1999/xlink" x="0px" y="0px"
	 viewBox="0 0 40 40" style="enable-background:new 0 0 40 40;" xml:space="preserve">
<style type="text/css">
	.st0{fill:#1E304C;}
</style>
<g>
	<path class="st0" d="M9.4,28.4c-3.8,0-6.8-3-6.8-6.7v-3.4c0-3.7,3.1-6.7,6.8-6.7h2.9l3.2-3.1c3.8-3.7,7.8-2.1,7.8,3.2v16.6
		c0,5.3-4,6.9-7.8,3.2l-3.2-3.1H9.4z M9.4,14.6c-2.1,0-3.8,1.7-3.8,3.7v3.4c0,2,1.7,3.7,3.8,3.7h4.2l4.1,4c1.9,1.9,2.6,1.6,2.6-1.1
		V11.7c0-2.6-0.7-2.9-2.6-1.1l-4.1,4L9.4,14.6L9.4,14.6z M29.6,23.9c0.5-1.2,0.8-2.6,0.8-3.9c0-1.4-0.3-2.7-0.8-3.9
		c-0.3-0.8-1.2-1.1-2-0.8c-0.8,0.3-1.1,1.2-0.8,1.9c0,0,0,0,0,0c0.4,0.9,0.6,1.8,0.6,2.8c0,1-0.2,1.9-0.6,2.8c-0.3,0.8,0,1.6,0.8,2
		c0,0,0,0,0,0C28.3,25,29.2,24.7,29.6,23.9z M35,28.7c0.8-1.3,1.4-2.7,1.8-4.1c0.4-1.5,0.6-3,0.6-4.6c0-1.6-0.2-3.1-0.6-4.6
		c-0.4-1.4-1-2.8-1.8-4.1c-0.4-0.7-1.4-0.9-2.1-0.5c-0.7,0.4-1,1.3-0.6,2c0,0,0,0,0,0c0.6,1.1,1.2,2.2,1.5,3.4
		c0.4,1.2,0.5,2.5,0.5,3.8c0,1.3-0.2,2.6-0.5,3.8c-0.3,1.2-0.8,2.3-1.5,3.4c-0.4,0.7-0.2,1.6,0.5,2c0,0,0,0,0,0
		C33.6,29.7,34.5,29.4,35,28.7z"/>
</g>
</svg>
