<?xml version="1.0" encoding="utf-8"?>
<!-- Generator: Adobe Illustrator 22.0.1, SVG Export Plug-In . SVG Version: 6.00 Build 0)  -->
<svg version="1.1" xmlns="http://www.w3.org/2000/svg" xmlns:xlink="http://www.w3.org/1999/xlink" x="0px" y="0px"
	 viewBox="0 0 40 40" style="enable-background:new 0 0 40 40;" xml:space="preserve">
<style type="text/css">
	.st0{fill:#1E304C;}
</style>
<g id="Layer_1">
	<g>
		<path class="st0" d="M9.4,28.9h1.5l2.2-3.1H9.4c-2.1,0-3.8-1.7-3.8-3.7v-3.4c0-2,1.7-3.7,3.8-3.7h4.2l4.1-4
			c1.9-1.8,2.6-1.5,2.6,1.1v3.7l3-4.2C23,6.8,19.1,5.4,15.5,9l-3.2,3H9.4c-3.7,0-6.8,3-6.8,6.7v3.4c0,3.7,3,6.7,6.8,6.7V28.9z"/>
		<path class="st0" d="M36.8,15.8c-0.4-1.4-1-2.8-1.8-4.1c-0.4-0.7-1.4-0.9-2.1-0.5c-0.7,0.4-1,1.3-0.6,2c0.6,1.1,1.2,2.2,1.5,3.4
			c0.4,1.2,0.5,2.5,0.5,3.8c0,1.3-0.2,2.6-0.5,3.8s-0.8,2.3-1.5,3.4c-0.4,0.7-0.2,1.6,0.5,2c0.8,0.5,1.7,0.3,2.2-0.5
			c0.8-1.3,1.4-2.7,1.8-4.1c0.4-1.5,0.6-3,0.6-4.6C37.4,18.8,37.2,17.3,36.8,15.8z"/>
		<path class="st0" d="M20.3,28.7c0,2.5-0.6,2.9-2.3,1.4l-1.8,2.5c3.6,2.8,7.1,1.1,7.1-3.8v-6l-3,4.2V28.7z"/>
		<path class="st0" d="M28.5,15.6l-1.6,2.2c0.3,0.8,0.5,1.6,0.5,2.6c0,1-0.2,1.9-0.6,2.8c-0.3,0.8,0,1.6,0.8,2
			c0.7,0.3,1.6-0.1,2-0.9c0.5-1.2,0.8-2.6,0.8-3.9c0-1.4-0.3-2.7-0.8-3.9C29.4,16,29,15.7,28.5,15.6z"/>
		<path class="st0" d="M33.3,6.3c0.6-0.8,0.3-1.8-0.5-2.4c-0.8-0.5-1.9-0.3-2.5,0.5L9.2,33.7c-0.6,0.8-0.3,1.8,0.5,2.4
			c0.8,0.5,2,0.3,2.5-0.5l2.9-4l0,0l1.8-2.6l0,0l3.4-4.7v0.1l3-4.2v-0.1L33.3,6.3z"/>
	</g>
</g>
<g id="Layer_2">
</g>
</svg>
