<?xml version="1.0" encoding="utf-8"?>
<!-- Generator: Adobe Illustrator 22.0.1, SVG Export Plug-In . SVG Version: 6.00 Build 0)  -->
<svg version="1.1" id="Layer_1" xmlns="http://www.w3.org/2000/svg" xmlns:xlink="http://www.w3.org/1999/xlink" x="0px" y="0px"
	 viewBox="0 0 24 24" style="enable-background:new 0 0 24 24;" xml:space="preserve">
<style type="text/css">
	.st0{fill:none;}
	.st1{enable-background:new    ;}
</style>
<path class="st0" d="M0,0h24v24H0V0z"/>
<path id="_" class="st1" d="M5,4C3.9,4,3,4.9,3,6c0,0,0,0,0,0v12c0,1.1,0.9,2,2,2c0,0,0,0,0,0h14c1.1,0,2-0.9,2-2c0,0,0,0,0,0V6
	c0-1.1-0.9-2-2-2c0,0,0,0,0,0H5z M9.5,11v-0.5h-2v3h2V13H11v1c0,0.3-0.1,0.5-0.3,0.7C10.5,14.9,10.3,15,10,15H7c-0.5,0-1-0.5-1-1v-4
	c0-0.5,0.5-1,1-1h3c0.3,0,0.5,0.1,0.7,0.3C10.9,9.5,11,9.7,11,10v1L9.5,11L9.5,11z M16.5,11v-0.5h-2v3h2V13H18v1c0,0.5-0.5,1-1,1h-3
	c-0.3,0-0.5-0.1-0.7-0.3C13.1,14.5,13,14.3,13,14v-4c0-0.3,0.1-0.5,0.3-0.7C13.5,9.1,13.7,9,14,9h3c0.5,0,1,0.5,1,1v1L16.5,11
	L16.5,11z"/>
<path d="M20,24H4c-0.5,0-1-0.4-1-1v0c0-0.5,0.4-1,1-1h16c0.5,0,1,0.4,1,1v0C21,23.6,20.6,24,20,24z"/>
</svg>
