<?xml version="1.0" encoding="utf-8"?>
<!-- Generator: Adobe Illustrator 20.0.0, SVG Export Plug-In . SVG Version: 6.00 Build 0)  -->
<svg version="1.1" id="Layer_1" xmlns="http://www.w3.org/2000/svg" xmlns:xlink="http://www.w3.org/1999/xlink" x="0px" y="0px"
	 viewBox="0 0 24 24" style="enable-background:new 0 0 24 24;" xml:space="preserve">
<style type="text/css">
	.st0{fill-rule:evenodd;clip-rule:evenodd;}
</style>
<path class="st0" d="M11.5,14c-0.8,0-1.5-0.7-1.5-1.5s0.7-1.5,1.5-1.5s1.5,0.7,1.5,1.5S12.3,14,11.5,14z M11.5,8
	C10.7,8,10,7.3,10,6.5S10.7,5,11.5,5S13,5.7,13,6.5S12.3,8,11.5,8z M11.5,17c0.8,0,1.5,0.7,1.5,1.5S12.3,20,11.5,20S10,19.3,10,18.5
	S10.7,17,11.5,17z"/>
</svg>
