<?xml version="1.0" encoding="utf-8"?>
<!-- Generator: Adobe Illustrator 20.0.0, SVG Export Plug-In . SVG Version: 6.00 Build 0)  -->
<svg version="1.1" id="Layer_1" xmlns="http://www.w3.org/2000/svg" xmlns:xlink="http://www.w3.org/1999/xlink" x="0px" y="0px"
	 viewBox="0 0 24 24" style="enable-background:new 0 0 24 24;" xml:space="preserve">
<g>
	<path d="M12,3c2.2,0,4.1,0.8,5.7,2H15v1h4V2h-1v2c-1.7-1.3-3.7-2-6-2C6.5,2,2,6.5,2,12c0,0.6,0.1,1.2,0.2,1.8h1C3,13.2,3,12.6,3,12
		C3,7,7,3,12,3z"/>
	<path d="M21.5,9h-1c0.3,0.9,0.5,1.9,0.5,3c0,5-4.1,9-9,9c-2.2,0-4.1-0.8-5.7-2H8v-1H5.2H4.5H4v4h1v-2.9c1.8,1.8,4.3,2.9,7,2.9
		c5.5,0,10-4.5,10-10C22,11,21.8,9.9,21.5,9z"/>
</g>
</svg>
