<?xml version="1.0" encoding="utf-8"?>
<!-- Generator: Adobe Illustrator 22.0.1, SVG Export Plug-In . SVG Version: 6.00 Build 0)  -->
<svg version="1.1" id="Layer_1" xmlns="http://www.w3.org/2000/svg" xmlns:xlink="http://www.w3.org/1999/xlink" x="0px" y="0px"
	 viewBox="0 0 24 24" style="enable-background:new 0 0 24 24;" xml:space="preserve">
<style type="text/css">
	.st0{opacity:0.87;enable-background:new    ;}
</style>
<path id="_" class="st0" d="M12.9,12c0-0.1,0-0.1-0.1-0.2L8.6,7.6c-0.1-0.1-0.3-0.1-0.4,0c0,0,0,0,0,0L7.8,8.1
	c-0.1,0.1-0.1,0.3,0,0.4c0,0,0,0,0,0l3.5,3.5l-3.5,3.5c-0.1,0.1-0.1,0.3,0,0.4c0,0,0,0,0,0l0.4,0.4c0.1,0.1,0.3,0.1,0.4,0
	c0,0,0,0,0,0l4.2-4.2C12.8,12.1,12.9,12.1,12.9,12z M16.3,12c0-0.1,0-0.1-0.1-0.2l-4.2-4.2c-0.1-0.1-0.3-0.1-0.4,0c0,0,0,0,0,0
	l-0.4,0.4c-0.1,0.1-0.1,0.3,0,0.4c0,0,0,0,0,0l3.5,3.5l-3.5,3.5c-0.1,0.1-0.1,0.3,0,0.4c0,0,0,0,0,0l0.4,0.4c0.1,0.1,0.3,0.1,0.4,0
	c0,0,0,0,0,0l4.2-4.2C16.3,12.1,16.3,12.1,16.3,12L16.3,12z"/>
</svg>
